<?xml version="1.0" encoding="UTF-8" standalone="no"?>
<!-- Created with Inkscape (http://www.inkscape.org/) -->

<svg
   width="142.30499mm"
   height="39.376999mm"
   viewBox="0 0 142.30499 39.376999"
   version="1.1"
   id="svg1"
   inkscape:version="1.3.1 (91b66b0, 2023-11-16)"
   sodipodi:docname="itu250.svg"
   xmlns:inkscape="http://www.inkscape.org/namespaces/inkscape"
   xmlns:sodipodi="http://sodipodi.sourceforge.net/DTD/sodipodi-0.dtd"
   xmlns="http://www.w3.org/2000/svg"
   xmlns:svg="http://www.w3.org/2000/svg">
  <sodipodi:namedview
     id="namedview1"
     pagecolor="#505050"
     bordercolor="#eeeeee"
     borderopacity="1"
     inkscape:showpageshadow="0"
     inkscape:pageopacity="0"
     inkscape:pagecheckerboard="0"
     inkscape:deskcolor="#505050"
     inkscape:document-units="mm"
     inkscape:zoom="1.6475246"
     inkscape:cx="206.06672"
     inkscape:cy="49.468153"
     inkscape:window-width="1680"
     inkscape:window-height="1022"
     inkscape:window-x="0"
     inkscape:window-y="28"
     inkscape:window-maximized="0"
     inkscape:current-layer="layer1" />
  <defs
     id="defs1">
    <clipPath
       clipPathUnits="userSpaceOnUse"
       id="clipPath128">
      <path
         d="M 0,651.969 H 651.98 V 0 H 0 Z"
         transform="translate(-139.5244,-322.50251)"
         id="path128" />
    </clipPath>
    <clipPath
       clipPathUnits="userSpaceOnUse"
       id="clipPath130">
      <path
         d="M 0,651.969 H 651.98 V 0 H 0 Z"
         transform="translate(-286.80171,-376.14791)"
         id="path130" />
    </clipPath>
    <clipPath
       clipPathUnits="userSpaceOnUse"
       id="clipPath132">
      <path
         d="M 0,651.969 H 651.98 V 0 H 0 Z"
         transform="translate(-290.31661,-370.16021)"
         id="path132" />
    </clipPath>
    <clipPath
       clipPathUnits="userSpaceOnUse"
       id="clipPath134">
      <path
         d="M 0,651.969 H 651.98 V 0 H 0 Z"
         transform="translate(-279.0268,-374.32091)"
         id="path134" />
    </clipPath>
    <clipPath
       clipPathUnits="userSpaceOnUse"
       id="clipPath136">
      <path
         d="M 0,651.969 H 651.98 V 0 H 0 Z"
         transform="translate(-287.95201,-377.09841)"
         id="path136" />
    </clipPath>
    <clipPath
       clipPathUnits="userSpaceOnUse"
       id="clipPath138">
      <path
         d="M 0,651.969 H 651.98 V 0 H 0 Z"
         transform="translate(-259.56331,-344.68591)"
         id="path138" />
    </clipPath>
    <clipPath
       clipPathUnits="userSpaceOnUse"
       id="clipPath140">
      <path
         d="M 0,651.969 H 651.98 V 0 H 0 Z"
         transform="translate(-272.25021,-369.73151)"
         id="path140" />
    </clipPath>
    <clipPath
       clipPathUnits="userSpaceOnUse"
       id="clipPath142">
      <path
         d="M 0,651.969 H 651.98 V 0 H 0 Z"
         transform="translate(-261.3739,-350.89071)"
         id="path142" />
    </clipPath>
    <clipPath
       clipPathUnits="userSpaceOnUse"
       id="clipPath144">
      <path
         d="M 0,651.969 H 651.98 V 0 H 0 Z"
         transform="translate(-303.09781,-364.98051)"
         id="path144" />
    </clipPath>
    <clipPath
       clipPathUnits="userSpaceOnUse"
       id="clipPath146">
      <path
         d="M 0,651.969 H 651.98 V 0 H 0 Z"
         transform="translate(-267.66411,-364.33681)"
         id="path146" />
    </clipPath>
    <clipPath
       clipPathUnits="userSpaceOnUse"
       id="clipPath148">
      <path
         d="M 0,651.969 H 651.98 V 0 H 0 Z"
         transform="translate(-265.63171,-358.08711)"
         id="path148" />
    </clipPath>
    <clipPath
       clipPathUnits="userSpaceOnUse"
       id="clipPath150">
      <path
         d="M 0,651.969 H 651.98 V 0 H 0 Z"
         transform="translate(-313.19801,-355.43021)"
         id="path150" />
    </clipPath>
    <clipPath
       clipPathUnits="userSpaceOnUse"
       id="clipPath152">
      <path
         d="M 0,651.969 H 651.98 V 0 H 0 Z"
         transform="translate(-314.85271,-350.79311)"
         id="path152" />
    </clipPath>
    <clipPath
       clipPathUnits="userSpaceOnUse"
       id="clipPath154">
      <path
         d="M 0,651.969 H 651.98 V 0 H 0 Z"
         transform="translate(-316.44571,-343.30551)"
         id="path154" />
    </clipPath>
    <clipPath
       clipPathUnits="userSpaceOnUse"
       id="clipPath156">
      <path
         d="M 0,651.969 H 651.98 V 0 H 0 Z"
         transform="translate(-317.34071,-333.81241)"
         id="path156" />
    </clipPath>
    <clipPath
       clipPathUnits="userSpaceOnUse"
       id="clipPath158">
      <path
         d="M 0,651.969 H 651.98 V 0 H 0 Z"
         transform="translate(-313.92861,-336.90761)"
         id="path158" />
    </clipPath>
    <clipPath
       clipPathUnits="userSpaceOnUse"
       id="clipPath160">
      <path
         d="M 0,651.969 H 651.98 V 0 H 0 Z"
         transform="translate(-306.30181,-369.25851)"
         id="path160" />
    </clipPath>
    <clipPath
       clipPathUnits="userSpaceOnUse"
       id="clipPath162">
      <path
         d="M 0,651.969 H 651.98 V 0 H 0 Z"
         transform="translate(-305.04881,-370.48501)"
         id="path162" />
    </clipPath>
    <clipPath
       clipPathUnits="userSpaceOnUse"
       id="clipPath164">
      <path
         d="M 0,651.969 H 651.98 V 0 H 0 Z"
         transform="translate(-303.21331,-362.38921)"
         id="path164" />
    </clipPath>
    <clipPath
       clipPathUnits="userSpaceOnUse"
       id="clipPath166">
      <path
         d="M 0,651.969 H 651.98 V 0 H 0 Z"
         transform="translate(-311.29971,-359.59601)"
         id="path166" />
    </clipPath>
    <clipPath
       clipPathUnits="userSpaceOnUse"
       id="clipPath168">
      <path
         d="M 0,651.969 H 651.98 V 0 H 0 Z"
         transform="translate(-313.18621,-359.09201)"
         id="path168" />
    </clipPath>
    <clipPath
       clipPathUnits="userSpaceOnUse"
       id="clipPath170">
      <path
         d="M 0,651.969 H 651.98 V 0 H 0 Z"
         transform="translate(-317.11741,-324.68361)"
         id="path170" />
    </clipPath>
    <clipPath
       clipPathUnits="userSpaceOnUse"
       id="clipPath172">
      <path
         d="M 0,651.969 H 651.98 V 0 H 0 Z"
         transform="translate(-295.0042,-294.12441)"
         id="path172" />
    </clipPath>
    <clipPath
       clipPathUnits="userSpaceOnUse"
       id="clipPath174">
      <path
         d="M 0,651.969 H 651.98 V 0 H 0 Z"
         transform="translate(-317.67231,-330.39241)"
         id="path174" />
    </clipPath>
    <clipPath
       clipPathUnits="userSpaceOnUse"
       id="clipPath176">
      <path
         d="M 0,651.969 H 651.98 V 0 H 0 Z"
         transform="translate(-291.7054,-295.00761)"
         id="path176" />
    </clipPath>
    <clipPath
       clipPathUnits="userSpaceOnUse"
       id="clipPath178">
      <path
         d="M 0,651.969 H 651.98 V 0 H 0 Z"
         transform="translate(-287.18161,-295.00761)"
         id="path178" />
    </clipPath>
    <clipPath
       clipPathUnits="userSpaceOnUse"
       id="clipPath180">
      <path
         d="M 0,651.969 H 651.98 V 0 H 0 Z"
         transform="translate(-314.17771,-313.46281)"
         id="path180" />
    </clipPath>
    <clipPath
       clipPathUnits="userSpaceOnUse"
       id="clipPath182">
      <path
         d="M 0,651.969 H 651.98 V 0 H 0 Z"
         transform="translate(-314.43241,-318.69811)"
         id="path182" />
    </clipPath>
    <clipPath
       clipPathUnits="userSpaceOnUse"
       id="clipPath184">
      <path
         d="M 0,651.969 H 651.98 V 0 H 0 Z"
         transform="translate(-288.13161,-300.71421)"
         id="path184" />
    </clipPath>
    <clipPath
       clipPathUnits="userSpaceOnUse"
       id="clipPath186">
      <path
         d="M 0,651.969 H 651.98 V 0 H 0 Z"
         transform="translate(-283.28121,-291.40851)"
         id="path186" />
    </clipPath>
    <clipPath
       clipPathUnits="userSpaceOnUse"
       id="clipPath188">
      <path
         d="M 0,651.969 H 651.98 V 0 H 0 Z"
         transform="translate(-315.23371,-312.14761)"
         id="path188" />
    </clipPath>
    <clipPath
       clipPathUnits="userSpaceOnUse"
       id="clipPath190">
      <path
         d="M 0,651.969 H 651.98 V 0 H 0 Z"
         transform="translate(-261.02781,-312.39561)"
         id="path190" />
    </clipPath>
    <clipPath
       clipPathUnits="userSpaceOnUse"
       id="clipPath192">
      <path
         d="M 0,651.969 H 651.98 V 0 H 0 Z"
         transform="translate(-318.80581,-332.96411)"
         id="path192" />
    </clipPath>
    <clipPath
       clipPathUnits="userSpaceOnUse"
       id="clipPath194">
      <path
         d="M 0,651.969 H 651.98 V 0 H 0 Z"
         transform="translate(-258.95671,-331.87991)"
         id="path194" />
    </clipPath>
    <clipPath
       clipPathUnits="userSpaceOnUse"
       id="clipPath196">
      <path
         d="M 0,651.969 H 651.98 V 0 H 0 Z"
         transform="translate(-267.72021,-315.54011)"
         id="path196" />
    </clipPath>
    <clipPath
       clipPathUnits="userSpaceOnUse"
       id="clipPath198">
      <path
         d="M 0,651.969 H 651.98 V 0 H 0 Z"
         transform="translate(-259.51281,-340.80971)"
         id="path198" />
    </clipPath>
    <clipPath
       clipPathUnits="userSpaceOnUse"
       id="clipPath200">
      <path
         d="M 0,651.969 H 651.98 V 0 H 0 Z"
         transform="translate(-262.42381,-328.96441)"
         id="path200" />
    </clipPath>
    <clipPath
       clipPathUnits="userSpaceOnUse"
       id="clipPath202">
      <path
         d="M 0,651.969 H 651.98 V 0 H 0 Z"
         transform="translate(-262.8463,-315.11591)"
         id="path202" />
    </clipPath>
    <clipPath
       clipPathUnits="userSpaceOnUse"
       id="clipPath204">
      <path
         d="M 0,651.969 H 651.98 V 0 H 0 Z"
         transform="translate(-311.89391,-299.84111)"
         id="path204" />
    </clipPath>
    <clipPath
       clipPathUnits="userSpaceOnUse"
       id="clipPath206">
      <path
         d="M 0,651.969 H 651.98 V 0 H 0 Z"
         transform="translate(-261.7594,-320.10311)"
         id="path206" />
    </clipPath>
    <clipPath
       clipPathUnits="userSpaceOnUse"
       id="clipPath208">
      <path
         d="M 0,651.969 H 651.98 V 0 H 0 Z"
         transform="translate(-287.33421,-332.16891)"
         id="path208" />
    </clipPath>
    <clipPath
       clipPathUnits="userSpaceOnUse"
       id="clipPath210">
      <path
         d="M 0,651.969 H 651.98 V 0 H 0 Z"
         transform="translate(-278.70981,-335.72701)"
         id="path210" />
    </clipPath>
    <clipPath
       clipPathUnits="userSpaceOnUse"
       id="clipPath212">
      <path
         d="M 0,651.969 H 651.98 V 0 H 0 Z"
         transform="translate(-348.40211,-286.7208)"
         id="path212" />
    </clipPath>
    <clipPath
       clipPathUnits="userSpaceOnUse"
       id="clipPath214">
      <path
         d="M 0,651.969 H 651.98 V 0 H 0 Z"
         transform="translate(-485.05991,-336.86911)"
         id="path214" />
    </clipPath>
    <clipPath
       clipPathUnits="userSpaceOnUse"
       id="clipPath216">
      <path
         d="M 0,651.969 H 651.98 V 0 H 0 Z"
         transform="translate(-494.68491,-341.98941)"
         id="path216" />
    </clipPath>
    <clipPath
       clipPathUnits="userSpaceOnUse"
       id="clipPath218">
      <path
         d="M 0,651.969 H 651.98 V 0 H 0 Z"
         transform="translate(-511.71262,-336.54101)"
         id="path218" />
    </clipPath>
    <clipPath
       clipPathUnits="userSpaceOnUse"
       id="clipPath220">
      <path
         d="M 0,651.969 H 651.98 V 0 H 0 Z"
         transform="translate(-523.73272,-337.43781)"
         id="path220" />
    </clipPath>
    <clipPath
       clipPathUnits="userSpaceOnUse"
       id="clipPath222">
      <path
         d="M 0,651.969 H 651.98 V 0 H 0 Z"
         transform="translate(-393.32511,-298.8609)"
         id="path222" />
    </clipPath>
    <clipPath
       clipPathUnits="userSpaceOnUse"
       id="clipPath224">
      <path
         d="M 0,651.969 H 651.98 V 0 H 0 Z"
         transform="translate(-400.90051,-298.94811)"
         id="path224" />
    </clipPath>
    <clipPath
       clipPathUnits="userSpaceOnUse"
       id="clipPath226">
      <path
         d="M 0,651.969 H 651.98 V 0 H 0 Z"
         transform="translate(-408.37361,-298.94811)"
         id="path226" />
    </clipPath>
    <clipPath
       clipPathUnits="userSpaceOnUse"
       id="clipPath228">
      <path
         d="M 0,651.969 H 651.98 V 0 H 0 Z"
         transform="translate(-413.42171,-296.08121)"
         id="path228" />
    </clipPath>
    <clipPath
       clipPathUnits="userSpaceOnUse"
       id="clipPath230">
      <path
         d="M 0,651.969 H 651.98 V 0 H 0 Z"
         id="path230" />
    </clipPath>
    <clipPath
       clipPathUnits="userSpaceOnUse"
       id="clipPath232">
      <path
         d="M 0,651.969 H 651.98 V 0 H 0 Z"
         transform="translate(-430.34701,-296.32271)"
         id="path232" />
    </clipPath>
    <clipPath
       clipPathUnits="userSpaceOnUse"
       id="clipPath234">
      <path
         d="M 0,651.969 H 651.98 V 0 H 0 Z"
         transform="translate(-440.98171,-297.6792)"
         id="path234" />
    </clipPath>
    <clipPath
       clipPathUnits="userSpaceOnUse"
       id="clipPath236">
      <path
         d="M 0,651.969 H 651.98 V 0 H 0 Z"
         transform="translate(-446.07101,-296.32271)"
         id="path236" />
    </clipPath>
    <clipPath
       clipPathUnits="userSpaceOnUse"
       id="clipPath238">
      <path
         d="M 0,651.969 H 651.98 V 0 H 0 Z"
         transform="translate(-453.51061,-296.08121)"
         id="path238" />
    </clipPath>
    <clipPath
       clipPathUnits="userSpaceOnUse"
       id="clipPath240">
      <path
         d="M 0,651.969 H 651.98 V 0 H 0 Z"
         transform="translate(-401.99931,-314.44531)"
         id="path240" />
    </clipPath>
    <clipPath
       clipPathUnits="userSpaceOnUse"
       id="clipPath242">
      <path
         d="M 0,651.969 H 651.98 V 0 H 0 Z"
         transform="translate(-412.41331,-332.68871)"
         id="path242" />
    </clipPath>
    <clipPath
       clipPathUnits="userSpaceOnUse"
       id="clipPath244">
      <path
         d="M 0,651.969 H 651.98 V 0 H 0 Z"
         transform="translate(-430.76431,-319.48211)"
         id="path244" />
    </clipPath>
    <clipPath
       clipPathUnits="userSpaceOnUse"
       id="clipPath246">
      <path
         d="M 0,651.969 H 651.98 V 0 H 0 Z"
         transform="translate(-495.74281,-348.35851)"
         id="path246" />
    </clipPath>
    <clipPath
       clipPathUnits="userSpaceOnUse"
       id="clipPath248">
      <path
         d="M 0,651.969 H 651.98 V 0 H 0 Z"
         transform="translate(-483.45801,-364.11451)"
         id="path248" />
    </clipPath>
    <clipPath
       clipPathUnits="userSpaceOnUse"
       id="clipPath250">
      <path
         d="M 0,651.969 H 651.98 V 0 H 0 Z"
         transform="translate(-488.07891,-365.25621)"
         id="path250" />
    </clipPath>
  </defs>
  <g
     inkscape:label="Layer 1"
     inkscape:groupmode="layer"
     id="layer1">
    <g
       id="g375"
       inkscape:label="Dark-Gold"
       transform="matrix(0.26458333,0,0,0.26458333,-43.849712,-95.311347)">
      <path
         id="path127"
         d="m 0,0 c 0,0.952 0.391,1.43 1.269,1.43 h 3.802 c 0.397,0 0.638,0.235 0.638,0.63 v 2.699 c 0,0.397 -0.241,0.637 -0.638,0.637 h -19.742 c -0.396,0 -0.555,-0.24 -0.555,-0.637 V 2.06 c 0,-0.395 0.159,-0.63 0.555,-0.63 h 3.884 c 0.795,0 1.189,-0.478 1.189,-1.43 v -46.301 c 0,-0.954 -0.394,-1.432 -1.189,-1.432 h -3.884 c -0.396,0 -0.555,-0.239 -0.555,-0.634 v -2.695 c 0,-0.395 0.159,-0.631 0.555,-0.631 H 5.071 c 0.397,0 0.638,0.236 0.638,0.631 v 2.695 c 0,0.395 -0.241,0.634 -0.638,0.634 H 1.269 C 0.391,-47.733 0,-47.255 0,-46.301 Z m 23.628,5.396 c -5.474,0 -7.932,0.077 -14.67,0.316 -0.394,0 -0.556,-0.239 -0.556,-0.635 L 8.086,-10.467 c 0,-0.393 0.157,-0.629 0.552,-0.629 h 6.426 c 0.397,0 0.556,0.236 0.556,0.629 v 5.316 c 0,4.124 1.35,5.708 4.914,5.708 h 4.357 v -46.858 c 0,-0.954 -0.391,-1.432 -1.263,-1.432 h -6.899 c -0.32,0 -0.474,-0.239 -0.474,-0.634 v -2.695 c 0,-0.395 0.154,-0.631 0.474,-0.631 h 25.768 c 0.398,0 0.554,0.236 0.554,0.631 v 2.695 c 0,0.395 -0.156,0.634 -0.554,0.634 h -6.899 c -0.788,0 -1.188,0.478 -1.188,1.432 V 0.557 h 4.282 c 3.568,0 4.99,-1.584 4.99,-5.708 v -5.316 c 0,-0.393 0.163,-0.629 0.479,-0.629 h 6.424 c 0.397,0 0.636,0.236 0.636,0.629 L 50.902,5.077 c 0,0.396 -0.159,0.635 -0.556,0.635 C 44.242,5.473 41.071,5.396 35.598,5.396 Z M 94.908,0 c 0,0.952 0.398,1.43 1.19,1.43 h 3.567 c 0.316,0 0.479,0.235 0.479,0.63 v 2.699 c 0,0.397 -0.163,0.637 -0.479,0.637 H 84.36 c -0.316,0 -0.473,-0.24 -0.473,-0.637 V 2.06 c 0,-0.395 0.157,-0.63 0.473,-0.63 h 3.569 c 0.874,0 1.268,-0.478 1.268,-1.43 v -32.588 c 0,-9.517 -2.854,-14.271 -10.226,-14.271 -7.613,0 -10.147,4.6 -10.147,14.117 V 0 c 0,0.952 0.394,1.43 1.268,1.43 h 3.806 c 0.394,0 0.63,0.235 0.63,0.63 v 2.699 c 0,0.397 -0.236,0.637 -0.63,0.637 H 54.152 c -0.399,0 -0.554,-0.24 -0.554,-0.637 V 2.06 c 0,-0.395 0.155,-0.63 0.554,-0.63 h 3.884 c 0.795,0 1.189,-0.478 1.189,-1.43 v -33.065 c 0,-14.744 5.949,-19.263 18,-19.263 11.493,0 17.683,5.231 17.683,19.897 z M 69.613,22.349 c -2.456,0 -4.28,-2.059 -4.28,-4.676 0,-2.779 1.824,-4.836 4.28,-4.836 2.459,0 4.202,2.057 4.202,4.836 0,2.617 -1.743,4.676 -4.202,4.676 m 15.543,0 c -2.458,0 -4.284,-2.059 -4.284,-4.676 0,-2.779 1.826,-4.836 4.284,-4.836 2.299,0 4.124,2.057 4.124,4.836 0,2.617 -1.825,4.676 -4.124,4.676 m -89.878,0 c -2.457,0 -4.279,-2.059 -4.279,-4.676 0,-2.779 1.822,-4.836 4.279,-4.836 2.459,0 4.203,2.057 4.203,4.836 0,2.617 -1.744,4.676 -4.203,4.676"
         style="fill:#8c734b;fill-opacity:1;fill-rule:evenodd;stroke:none"
         transform="matrix(1.3333333,0,0,-1.3333333,186.03253,439.28733)"
         clip-path="url(#clipPath128)" />
      <path
         id="path129"
         d="m 0,0 0.436,0.006 c 0.091,0.004 0.136,-0.048 0.143,-0.16 l 0.09,-5.277 c 0,-0.108 -0.046,-0.163 -0.136,-0.167 L 0.096,-5.606 c -0.045,-0.005 -0.06,-0.03 -0.06,-0.077 l 0.008,-0.305 c 0,-0.044 0.019,-0.073 0.06,-0.071 l 2.233,0.035 c 0.037,0 0.069,0.036 0.069,0.075 l -0.005,0.313 c 0,0.042 -0.031,0.072 -0.074,0.072 L 1.892,-5.578 c -0.097,0 -0.137,0.054 -0.137,0.163 l -0.098,5.278 c 0,0.11 0.045,0.167 0.138,0.167 l 0.434,0.003 c 0.043,0 0.068,0.033 0.068,0.084 L 2.288,0.42 c 0,0.04 -0.024,0.072 -0.072,0.072 l -2.22,-0.044 c -0.046,0 -0.067,-0.028 -0.067,-0.069 l 0.01,-0.307 C -0.061,0.025 -0.045,0 0,0"
         style="fill:#8c734b;fill-opacity:1;fill-rule:nonzero;stroke:none"
         transform="matrix(1.3333333,0,0,-1.3333333,382.40227,367.76013)"
         clip-path="url(#clipPath130)" />
      <path
         id="path131"
         d="m 0,0 1.979,-0.614 c 0.039,-0.013 0.067,0.007 0.074,0.051 L 2.15,-0.27 c 0.009,0.041 0.006,0.073 -0.042,0.087 L 1.851,-0.102 C 1.759,-0.073 1.729,-0.012 1.762,0.093 L 2.334,1.986 2.835,2.317 3.427,-0.429 C 3.462,-0.522 3.403,-0.582 3.303,-0.555 L 3.041,-0.47 C 3.006,-0.459 2.98,-0.476 2.971,-0.522 L 2.879,-0.819 C 2.867,-0.86 2.874,-0.892 2.909,-0.906 l 2.009,-0.617 c 0.034,-0.013 0.06,0.003 0.076,0.052 l 0.08,0.298 c 0.023,0.036 0.01,0.074 -0.026,0.077 L 4.868,-1.04 C 4.73,-0.995 4.67,-0.892 4.636,-0.738 L 3.784,2.92 5.984,4.353 C 6.076,4.408 6.137,4.437 6.235,4.406 L 6.558,4.299 C 6.6,4.287 6.634,4.31 6.642,4.353 L 6.735,4.65 c 0.008,0.04 0,0.077 -0.039,0.084 L 4.95,5.273 C 4.912,5.289 4.885,5.262 4.873,5.218 L 4.781,4.932 C 4.772,4.885 4.781,4.85 4.818,4.842 L 5.204,4.727 C 5.297,4.695 5.299,4.608 5.22,4.564 L 2.574,2.789 3.288,5.143 C 3.326,5.248 3.376,5.289 3.473,5.262 L 3.884,5.134 C 3.93,5.114 3.961,5.138 3.972,5.18 L 4.061,5.474 C 4.075,5.518 4.057,5.548 4.013,5.561 L 1.886,6.222 C 1.842,6.233 1.82,6.214 1.803,6.172 L 1.717,5.876 C 1.703,5.834 1.711,5.799 1.753,5.791 L 2.168,5.659 C 2.253,5.635 2.284,5.571 2.253,5.465 L 0.726,0.415 C 0.699,0.309 0.638,0.273 0.553,0.298 L 0.139,0.427 C 0.091,0.439 0.062,0.424 0.052,0.377 L -0.04,0.085 C -0.05,0.039 -0.04,0.007 0,0"
         style="fill:#8c734b;fill-opacity:1;fill-rule:nonzero;stroke:none"
         transform="matrix(1.3333333,0,0,-1.3333333,387.0888,375.74373)"
         clip-path="url(#clipPath132)" />
      <path
         id="path133"
         d="M 0,0 0.419,0.126 C 0.502,0.155 0.564,0.118 0.593,0.016 l 1.536,-5.053 c 0.023,-0.105 0,-0.166 -0.089,-0.2 L 1.62,-5.362 C 1.582,-5.371 1.568,-5.408 1.586,-5.452 L 1.67,-5.737 c 0.012,-0.048 0.04,-0.07 0.085,-0.057 l 1.686,0.522 c 0.048,0.015 0.056,0.048 0.043,0.087 l -0.085,0.294 c -0.018,0.05 -0.041,0.066 -0.083,0.053 L 2.905,-4.959 C 2.81,-4.997 2.755,-4.954 2.721,-4.849 L 1.443,-0.624 3.74,-3.055 C 4.244,-3.588 4.735,-4.133 5.208,-4.666 5.234,-4.693 5.27,-4.707 5.29,-4.693 l 1.013,0.303 c 0.044,0.013 0.05,0.046 0.038,0.09 L 4.658,1.267 C 4.626,1.373 4.655,1.439 4.746,1.466 l 0.412,0.126 c 0.048,0.013 0.05,0.046 0.036,0.089 L 5.109,1.972 C 5.094,2.019 5.073,2.039 5.026,2.027 L 3.331,1.502 C 3.299,1.495 3.293,1.463 3.304,1.417 L 3.391,1.128 C 3.405,1.083 3.432,1.058 3.465,1.066 L 3.887,1.201 C 3.978,1.229 4.034,1.194 4.069,1.087 L 5.347,-3.131 3.019,-0.674 C 2.528,-0.147 2.023,0.406 1.604,0.892 1.573,0.928 1.539,0.949 1.508,0.937 L -0.131,0.431 C -0.172,0.419 -0.182,0.387 -0.172,0.347 L -0.081,0.054 C -0.068,0.008 -0.038,-0.017 0,0"
         style="fill:#8c734b;fill-opacity:1;fill-rule:nonzero;stroke:none"
         transform="matrix(1.3333333,0,0,-1.3333333,372.03573,370.19613)"
         clip-path="url(#clipPath134)" />
      <path
         id="path135"
         d="M 0,0 C 0.278,0.007 0.466,0.248 0.449,0.567 0.435,0.868 0.221,1.094 -0.058,1.09 -0.334,1.087 -0.527,0.838 -0.511,0.54 -0.491,0.228 -0.274,-0.01 0,0"
         style="fill:#8c734b;fill-opacity:1;fill-rule:nonzero;stroke:none"
         transform="matrix(1.3333333,0,0,-1.3333333,383.936,366.4928)"
         clip-path="url(#clipPath136)" />
      <path
         id="path137"
         d="m 0,0 0.3,-0.07 c 0.038,-0.003 0.074,0.008 0.075,0.053 l 0.104,0.431 c 0.017,0.088 0.083,0.12 0.185,0.099 L 4.3,-0.34 C 5.921,-0.712 6.569,-0.173 6.87,1.165 7.157,2.443 6.746,3.264 5.136,3.639 L 1.577,4.474 C 1.465,4.501 1.422,4.553 1.442,4.643 l 0.09,0.394 C 1.545,5.074 1.521,5.096 1.478,5.105 L 1.184,5.176 C 1.135,5.187 1.109,5.176 1.1,5.139 L 0.712,3.436 C 0.702,3.403 0.721,3.386 0.769,3.371 L 1.065,3.299 c 0.044,-0.006 0.07,0 0.079,0.041 l 0.093,0.397 c 0.02,0.094 0.086,0.129 0.19,0.102 L 5.011,2.996 C 6.052,2.761 6.504,2.321 6.318,1.498 6.129,0.652 5.552,0.488 4.508,0.733 L 0.913,1.572 C 0.8,1.6 0.763,1.653 0.788,1.75 L 0.881,2.173 C 0.89,2.214 0.87,2.252 0.826,2.264 L 0.533,2.329 C 0.485,2.34 0.457,2.321 0.443,2.275 L -0.051,0.079 C -0.063,0.04 -0.04,0.016 0,0"
         style="fill:#8c734b;fill-opacity:1;fill-rule:nonzero;stroke:none"
         transform="matrix(1.3333333,0,0,-1.3333333,346.0844,409.70947)"
         clip-path="url(#clipPath138)" />
      <path
         id="path139"
         d="M 0,0 C 0.031,-0.037 0.065,-0.044 0.099,-0.02 L 0.451,0.245 C 0.516,0.302 0.586,0.286 0.654,0.199 l 3.14,-4.214 C 3.857,-4.103 3.857,-4.174 3.785,-4.23 L 3.436,-4.492 C 3.396,-4.523 3.405,-4.556 3.428,-4.587 l 0.183,-0.25 c 0.024,-0.037 0.058,-0.05 0.092,-0.021 l 1.651,1.259 c 0.039,0.03 0.034,0.056 0.006,0.093 L 5.179,-3.257 C 5.151,-3.224 5.117,-3.212 5.088,-3.238 L 4.872,-3.404 C 4.793,-3.46 4.722,-3.445 4.658,-3.358 L 3.483,-1.779 3.51,-1.175 6.056,-2.308 C 6.158,-2.333 6.171,-2.412 6.084,-2.475 L 5.861,-2.646 c -0.028,-0.02 -0.028,-0.053 0,-0.089 L 6.046,-2.98 c 0.026,-0.037 0.057,-0.044 0.085,-0.028 l 1.686,1.277 c 0.026,0.029 0.017,0.054 0,0.094 l -0.193,0.24 c -0.02,0.041 -0.056,0.05 -0.082,0.025 L 7.393,-1.485 C 7.274,-1.573 7.155,-1.559 7.016,-1.498 L 3.586,-0.041 3.737,2.6 C 3.743,2.705 3.752,2.766 3.836,2.834 L 4.111,3.043 C 4.148,3.073 4.148,3.099 4.12,3.135 L 3.939,3.384 C 3.904,3.417 3.881,3.429 3.843,3.401 L 2.38,2.288 C 2.356,2.269 2.364,2.235 2.387,2.199 L 2.571,1.955 C 2.596,1.918 2.628,1.91 2.655,1.931 L 2.979,2.174 C 3.058,2.235 3.123,2.186 3.113,2.098 L 2.985,-1.111 1.517,0.86 C 1.457,0.949 1.457,1.016 1.532,1.076 L 1.879,1.341 C 1.913,1.366 1.918,1.401 1.89,1.443 L 1.71,1.687 C 1.678,1.719 1.638,1.721 1.61,1.693 L -0.173,0.346 C -0.205,0.31 -0.205,0.286 -0.18,0.245 Z"
         style="fill:#8c734b;fill-opacity:1;fill-rule:nonzero;stroke:none"
         transform="matrix(1.3333333,0,0,-1.3333333,363.00027,376.31533)"
         clip-path="url(#clipPath140)" />
      <path
         id="path141"
         d="m 0,0 c 0.047,-0.011 0.081,-0.003 0.097,0.036 l 0.139,0.426 c 0.023,0.08 0.095,0.109 0.195,0.071 l 4.936,-1.718 c 0.105,-0.037 0.135,-0.097 0.11,-0.178 l -0.141,-0.42 c -0.018,-0.05 0.006,-0.074 0.046,-0.084 l 0.286,-0.108 c 0.046,-0.008 0.077,-0.005 0.084,0.042 l 1.38,4.034 -2.04,0.844 C 5.051,2.958 5.019,2.953 5.007,2.907 L 4.786,2.268 C 4.775,2.235 4.792,2.202 4.837,2.196 L 5.776,1.817 C 6.205,1.641 6.374,1.564 6.049,0.628 L 5.782,-0.172 0.783,1.564 C 0.68,1.599 0.647,1.662 0.678,1.755 l 0.255,0.754 c 0.016,0.045 0,0.078 -0.042,0.093 L 0.602,2.699 C 0.567,2.717 0.525,2.699 0.511,2.655 L -0.326,0.187 c -0.02,-0.043 0,-0.069 0.044,-0.085 z"
         style="fill:#8c734b;fill-opacity:1;fill-rule:nonzero;stroke:none"
         transform="matrix(1.3333333,0,0,-1.3333333,348.49853,401.4364)"
         clip-path="url(#clipPath142)" />
      <path
         id="path143"
         d="M 0,0 2.539,2.664 C 2.614,2.74 2.683,2.748 2.747,2.683 L 3.038,2.406 C 3.065,2.374 3.095,2.386 3.122,2.414 L 3.338,2.638 C 3.367,2.672 3.37,2.7 3.35,2.727 L 2.103,3.941 C 2.081,3.969 2.051,3.958 2.017,3.931 L 1.808,3.704 C 1.775,3.673 1.769,3.644 1.796,3.617 L 2.09,3.331 C 2.152,3.266 2.152,3.192 2.074,3.114 L -0.48,0.443 C -1.222,-0.342 -1.825,-0.505 -2.427,0.08 -3.043,0.683 -2.893,1.262 -2.141,2.041 L 0.425,4.727 C 0.5,4.809 0.567,4.816 0.64,4.748 L 0.942,4.442 c 0.037,-0.028 0.074,-0.028 0.105,0 L 1.26,4.665 c 0.029,0.039 0.027,0.07 0,0.103 L -0.344,6.331 C -0.375,6.367 -0.406,6.36 -0.438,6.323 L -0.65,6.104 C -0.682,6.07 -0.685,6.042 -0.65,6.007 L -0.342,5.7 C -0.277,5.636 -0.277,5.57 -0.359,5.489 L -2.948,2.782 C -4.106,1.563 -3.973,0.724 -2.993,-0.231 -2.061,-1.14 -1.151,-1.201 0,0"
         style="fill:#8c734b;fill-opacity:1;fill-rule:nonzero;stroke:none"
         transform="matrix(1.3333333,0,0,-1.3333333,404.1304,382.65)"
         clip-path="url(#clipPath144)" />
      <path
         id="path145"
         d="m 0,0 c 0.045,-0.029 0.071,-0.034 0.099,0 l 0.279,0.346 c 0.054,0.066 0.125,0.074 0.207,0 l 4.06,-3.322 C 4.73,-3.043 4.744,-3.115 4.685,-3.185 L 4.406,-3.527 C 4.387,-3.564 4.389,-3.591 4.423,-3.624 l 0.24,-0.196 c 0.033,-0.02 0.067,-0.027 0.096,0.009 l 2.69,3.364 c 0.028,0.036 0.027,0.072 -0.012,0.097 L 6.177,0.714 C 6.141,0.748 6.103,0.74 6.072,0.699 L 5.616,0.131 C 5.594,0.105 5.606,0.073 5.634,0.046 L 6.047,-0.293 C 6.408,-0.587 6.441,-0.83 6.196,-1.149 l -0.818,-1.013 -1.941,1.587 0.394,0.489 c 0.131,0.162 0.238,0.167 0.422,0.013 l 0.273,-0.22 C 4.562,-0.32 4.592,-0.32 4.617,-0.297 l 0.362,0.46 C 5.01,0.196 4.995,0.227 4.963,0.251 4.453,0.635 3.973,1.035 3.49,1.462 3.454,1.494 3.422,1.494 3.402,1.465 L 3.031,1.001 C 3.008,0.972 3.02,0.941 3.051,0.913 L 3.331,0.685 C 3.516,0.534 3.536,0.424 3.402,0.26 L 3.013,-0.233 1.225,1.237 2.041,2.264 C 2.305,2.59 2.53,2.59 2.886,2.289 L 3.3,1.954 C 3.339,1.925 3.365,1.925 3.387,1.95 L 3.85,2.529 C 3.88,2.562 3.875,2.601 3.841,2.63 L 2.507,3.668 C 2.476,3.701 2.441,3.693 2.412,3.66 1.983,3.116 1.706,2.712 1.318,2.239 L -0.245,0.286 C -0.277,0.249 -0.263,0.221 -0.228,0.188 Z"
         style="fill:#8c734b;fill-opacity:1;fill-rule:nonzero;stroke:none"
         transform="matrix(1.3333333,0,0,-1.3333333,356.88547,383.50827)"
         clip-path="url(#clipPath146)" />
      <path
         id="path147"
         d="M 0,0 C 0.04,-0.021 0.07,-0.021 0.089,0.016 L 0.45,0.651 C 0.477,0.696 0.465,0.72 0.425,0.748 l -0.523,0.297 c -0.4,0.238 -0.479,0.462 -0.278,0.812 L -0.13,2.289 4.451,-0.38 C 4.539,-0.435 4.562,-0.506 4.515,-0.588 L 4.129,-1.271 C 4.11,-1.303 4.121,-1.333 4.161,-1.357 l 0.267,-0.151 c 0.037,-0.02 0.065,-0.02 0.087,0.014 L 5.959,1.045 C 5.986,1.086 5.975,1.115 5.935,1.144 L 5.672,1.294 C 5.633,1.315 5.599,1.31 5.58,1.279 L 5.193,0.595 C 5.151,0.512 5.078,0.506 4.982,0.556 L 0.406,3.228 0.645,3.652 C 0.85,4.007 1.085,4.055 1.487,3.814 L 2.006,3.518 C 2.046,3.497 2.077,3.497 2.098,3.529 L 2.456,4.165 C 2.475,4.203 2.472,4.234 2.433,4.262 L 0.894,5.113 C 0.86,5.138 0.821,5.135 0.8,5.097 0.48,4.479 0.311,4.165 0,3.619 L -0.672,2.439 C -0.983,1.901 -1.128,1.66 -1.527,1.008 -1.552,0.969 -1.54,0.935 -1.502,0.92 Z"
         style="fill:#8c734b;fill-opacity:1;fill-rule:nonzero;stroke:none"
         transform="matrix(1.3333333,0,0,-1.3333333,354.1756,391.8412)"
         clip-path="url(#clipPath148)" />
      <path
         id="path149"
         d="m 0,0 0.22,-0.576 c 0.016,-0.045 0.048,-0.052 0.09,-0.032 l 0.289,0.109 c 0.035,0.016 0.049,0.041 0.04,0.08 L -0.18,1.736 C -0.191,1.78 -0.227,1.784 -0.267,1.769 L -0.552,1.659 C -0.595,1.646 -0.612,1.618 -0.595,1.577 l 0.09,-0.24 C -0.474,1.265 -0.512,1.191 -0.595,1.129 L -4.423,-1.803 C -4.71,-2.018 -5.07,-2.288 -5.402,-2.491 -5.447,-2.507 -5.457,-2.526 -5.443,-2.559 l 0.355,-0.929 c 0.008,-0.04 0.041,-0.053 0.085,-0.046 0.754,0.135 1.312,0.167 1.984,0.227 l 3.984,0.327 c 0.108,0.013 0.17,-0.006 0.201,-0.097 l 0.098,-0.249 c 0.014,-0.044 0.05,-0.052 0.091,-0.036 l 0.28,0.11 c 0.048,0.02 0.063,0.04 0.048,0.086 L 1.087,-1.598 C 1.073,-1.554 1.041,-1.55 0.997,-1.561 L 0.717,-1.673 C 0.673,-1.693 0.648,-1.718 0.672,-1.762 L 0.841,-2.198 C 0.872,-2.292 0.829,-2.337 0.717,-2.353 L -4.047,-2.861 -0.19,0.046 C -0.099,0.116 -0.034,0.099 0,0"
         style="fill:#8c734b;fill-opacity:1;fill-rule:nonzero;stroke:none"
         transform="matrix(1.3333333,0,0,-1.3333333,417.59733,395.38373)"
         clip-path="url(#clipPath150)" />
      <path
         id="path151"
         d="M 0,0 0.108,-0.432 C 0.13,-0.516 0.083,-0.574 -0.02,-0.602 l -5.065,-1.28 c -0.108,-0.022 -0.168,0.005 -0.186,0.095 l -0.108,0.431 c -0.012,0.044 -0.046,0.054 -0.085,0.044 L -5.762,-1.387 C -5.803,-1.401 -5.826,-1.42 -5.816,-1.465 l 1.04,-4.203 c 0.009,-0.044 0.032,-0.056 0.085,-0.044 l 1.605,0.374 c 0.039,0.017 0.059,0.044 0.048,0.09 l -0.174,0.721 c -0.014,0.032 -0.042,0.045 -0.09,0.032 L -3.81,-4.619 c -0.452,-0.115 -0.66,0 -0.761,0.387 l -0.312,1.271 2.417,0.615 0.154,-0.615 c 0.047,-0.198 -0.013,-0.288 -0.246,-0.346 L -2.897,-3.39 c -0.046,-0.014 -0.062,-0.038 -0.058,-0.074 l 0.145,-0.572 c 0.011,-0.044 0.041,-0.057 0.084,-0.044 0.607,0.185 1.211,0.333 1.84,0.464 0.04,0.008 0.06,0.032 0.051,0.07 l -0.142,0.582 c -0.004,0.029 -0.039,0.046 -0.078,0.029 l -0.35,-0.081 c -0.237,-0.061 -0.328,-0.014 -0.382,0.189 l -0.148,0.617 2.244,0.563 0.307,-1.279 C 0.72,-3.339 0.584,-3.517 0.13,-3.632 L -0.381,-3.76 c -0.044,-0.007 -0.067,-0.034 -0.061,-0.072 l 0.187,-0.715 c 0.009,-0.045 0.039,-0.065 0.08,-0.053 l 1.618,0.447 c 0.047,0.011 0.064,0.039 0.059,0.085 -0.176,0.678 -0.317,1.142 -0.463,1.74 L 0.428,0.107 C 0.423,0.155 0.389,0.164 0.351,0.155 L 0.058,0.079 C 0.012,0.071 -0.011,0.041 0,0"
         style="fill:#8c734b;fill-opacity:1;fill-rule:nonzero;stroke:none"
         transform="matrix(1.3333333,0,0,-1.3333333,419.8036,401.56653)"
         clip-path="url(#clipPath152)" />
      <path
         id="path153"
         d="m 0,0 0.057,-0.364 c 0.115,-0.736 0.017,-1.111 -0.969,-1.268 -1.091,-0.176 -1.362,0.459 -1.445,1.001 l -0.064,0.386 2.236,0.358 C -0.072,0.134 -0.018,0.095 0,0 M -0.225,1.8 -0.163,1.364 C -0.15,1.27 -0.194,1.222 -0.296,1.2 L -5.458,0.374 C -5.565,0.361 -5.622,0.396 -5.64,0.484 L -5.71,0.92 C -5.715,0.969 -5.741,0.986 -5.785,0.973 L -6.088,0.929 C -6.134,0.92 -6.157,0.9 -6.152,0.854 l 0.355,-2.223 c 0.007,-0.043 0.033,-0.073 0.079,-0.061 l 0.298,0.05 c 0.048,0.003 0.073,0.031 0.063,0.077 L -5.42,-0.87 c -0.022,0.097 0.022,0.154 0.131,0.165 l 2.376,0.383 0.075,-0.484 C -3.667,-1.45 -4.659,-2.056 -5.573,-2.525 -5.6,-2.537 -5.613,-2.571 -5.609,-2.606 l 0.206,-1.312 c 0.012,-0.045 0.042,-0.053 0.081,-0.049 l 0.299,0.049 c 0.049,0 0.067,0.03 0.063,0.074 l -0.037,0.219 c -0.017,0.099 0.023,0.16 0.114,0.204 0.824,0.468 1.687,1.083 2.307,1.596 0.229,-0.55 0.83,-1.101 1.846,-0.931 1.515,0.243 1.498,1.098 1.303,2.34 L 0.211,1.869 C 0.205,1.918 0.178,1.925 0.13,1.922 L -0.169,1.874 C -0.21,1.866 -0.24,1.844 -0.225,1.8"
         style="fill:#8c734b;fill-opacity:1;fill-rule:nonzero;stroke:none"
         transform="matrix(1.3333333,0,0,-1.3333333,421.9276,411.55)"
         clip-path="url(#clipPath154)" />
      <path
         id="path155"
         d="m 0,0 c -0.044,0 -0.076,-0.021 -0.076,-0.068 v -0.44 c 0,-0.09 -0.051,-0.134 -0.161,-0.134 h -5.219 c -0.108,0 -0.156,0.044 -0.156,0.134 v 0.44 C -5.612,-0.021 -5.644,0 -5.691,0 H -5.994 C -6.041,0 -6.06,-0.021 -6.06,-0.068 V -2.32 c 0,-0.04 0.019,-0.065 0.066,-0.065 h 0.303 c 0.047,0 0.079,0.025 0.079,0.065 v 0.436 c 0,0.101 0.048,0.143 0.156,0.143 h 5.219 c 0.11,0 0.161,-0.042 0.161,-0.143 V -2.32 c 0,-0.04 0.032,-0.065 0.076,-0.065 h 0.301 c 0.041,0 0.074,0.025 0.074,0.065 v 2.252 C 0.375,-0.021 0.342,0 0.301,0 Z"
         style="fill:#8c734b;fill-opacity:1;fill-rule:nonzero;stroke:none"
         transform="matrix(1.3333333,0,0,-1.3333333,423.12093,424.20747)"
         clip-path="url(#clipPath156)" />
      <path
         id="path157"
         d="m 0,0 c -0.341,-0.896 -0.622,-1.119 -1.227,-1.147 -0.529,-0.034 -1.084,0.125 -1.124,0.875 -0.042,0.773 0.491,1.082 1.362,1.029 0.042,-0.007 0.069,0.014 0.069,0.059 l -0.048,0.891 c 0,0.026 -0.029,0.044 -0.077,0.048 -1.371,0.073 -1.858,-0.687 -1.795,-1.994 0.085,-1.543 0.829,-2.083 1.994,-2.017 0.992,0.057 1.524,0.616 1.995,1.961 0.319,0.844 0.563,0.967 1.135,1 C 2.908,0.732 3.231,0.47 3.261,-0.089 3.302,-0.79 2.755,-1.002 1.992,-0.973 1.945,-0.961 1.923,-0.985 1.923,-1.035 L 1.966,-1.904 C 1.97,-1.93 2.001,-1.958 2.044,-1.964 3.405,-2.038 3.807,-1.328 3.745,-0.073 3.685,1.084 3.09,1.858 1.952,1.8 0.873,1.74 0.456,1.295 0,0"
         style="fill:#8c734b;fill-opacity:1;fill-rule:nonzero;stroke:none"
         transform="matrix(1.3333333,0,0,-1.3333333,418.57147,420.08053)"
         clip-path="url(#clipPath158)" />
      <path
         id="path159"
         d="M 0,0 C 0.203,0.218 0.215,0.531 0.024,0.709 -0.172,0.907 -0.474,0.882 -0.688,0.664 -0.904,0.436 -0.914,0.122 -0.717,-0.072 -0.528,-0.251 -0.221,-0.222 0,0"
         style="fill:#8c734b;fill-opacity:1;fill-rule:nonzero;stroke:none"
         transform="matrix(1.3333333,0,0,-1.3333333,408.4024,376.946)"
         clip-path="url(#clipPath160)" />
      <path
         id="path161"
         d="M 0,0 C 0.201,0.219 0.22,0.522 0.025,0.717 -0.176,0.912 -0.485,0.888 -0.691,0.668 -0.91,0.446 -0.927,0.131 -0.729,-0.057 -0.524,-0.261 -0.223,-0.228 0,0"
         style="fill:#8c734b;fill-opacity:1;fill-rule:nonzero;stroke:none"
         transform="matrix(1.3333333,0,0,-1.3333333,406.73173,375.31067)"
         clip-path="url(#clipPath162)" />
      <path
         id="path163"
         d="M 0,0 C -0.085,-0.055 -0.162,-0.052 -0.206,0.021 L -0.46,0.39 C -0.483,0.422 -0.52,0.422 -0.554,0.397 L -0.806,0.218 C -0.841,0.188 -0.852,0.164 -0.829,0.128 l 1.016,-1.466 c 0.028,-0.044 0.06,-0.037 0.091,-0.018 l 0.252,0.18 c 0.039,0.028 0.049,0.055 0.024,0.094 L 0.309,-0.723 C 0.251,-0.645 0.27,-0.578 0.364,-0.512 L 3.944,2.023 2.365,-0.935 C 2.021,-1.591 1.66,-2.23 1.303,-2.849 1.279,-2.884 1.279,-2.913 1.296,-2.943 L 1.902,-3.815 C 1.933,-3.85 1.959,-3.85 1.999,-3.822 l 4.716,3.334 c 0.083,0.067 0.158,0.062 0.212,-0.024 l 0.249,-0.35 C 7.199,-0.903 7.23,-0.903 7.265,-0.874 l 0.252,0.176 c 0.037,0.027 0.046,0.055 0.023,0.091 L 6.527,0.857 C 6.502,0.893 6.467,0.893 6.436,0.862 L 6.185,0.686 C 6.152,0.665 6.136,0.628 6.158,0.604 L 6.408,0.237 C 6.466,0.155 6.447,0.086 6.358,0.03 L 2.785,-2.503 4.377,0.485 C 4.726,1.13 5.086,1.789 5.413,2.338 5.442,2.378 5.446,2.417 5.43,2.446 L 4.444,3.86 C 4.421,3.898 4.389,3.898 4.35,3.872 L 4.097,3.691 C 4.067,3.67 4.058,3.638 4.075,3.605 L 4.332,3.239 C 4.384,3.165 4.369,3.096 4.279,3.035 Z"
         style="fill:#8c734b;fill-opacity:1;fill-rule:nonzero;stroke:none"
         transform="matrix(1.3333333,0,0,-1.3333333,404.2844,386.10507)"
         clip-path="url(#clipPath164)" />
      <path
         id="path165"
         d="m 0,0 c 0.039,-0.081 0.004,-0.15 -0.088,-0.199 l -4.694,-2.308 c -0.1,-0.051 -0.169,-0.033 -0.204,0.048 l -0.194,0.4 c -0.019,0.037 -0.049,0.044 -0.092,0.024 l -0.274,-0.138 c -0.042,-0.018 -0.052,-0.047 -0.03,-0.085 l 0.975,-2.024 c 0.014,-0.041 0.056,-0.05 0.096,-0.039 l 0.27,0.141 c 0.043,0.014 0.051,0.057 0.035,0.097 l -0.188,0.392 c -0.044,0.089 -0.019,0.15 0.08,0.199 l 4.695,2.316 c 0.092,0.049 0.161,0.027 0.207,-0.065 l 0.19,-0.383 c 0.012,-0.045 0.054,-0.055 0.09,-0.034 l 0.277,0.137 c 0.039,0.014 0.05,0.056 0.03,0.093 L 0.21,0.591 C 0.186,0.637 0.155,0.64 0.113,0.621 L -0.158,0.49 C -0.201,0.468 -0.215,0.441 -0.192,0.397 Z"
         style="fill:#8c734b;fill-opacity:1;fill-rule:nonzero;stroke:none"
         transform="matrix(1.3333333,0,0,-1.3333333,415.06627,389.82933)"
         clip-path="url(#clipPath166)" />
      <path
         id="path167"
         d="M 0,0 C 0.265,0.139 0.387,0.423 0.265,0.672 0.151,0.928 -0.151,1.007 -0.407,0.874 -0.69,0.726 -0.81,0.437 -0.69,0.174 -0.572,-0.072 -0.278,-0.147 0,0"
         style="fill:#8c734b;fill-opacity:1;fill-rule:nonzero;stroke:none"
         transform="matrix(1.3333333,0,0,-1.3333333,417.5816,390.50133)"
         clip-path="url(#clipPath168)" />
      <path
         id="path169"
         d="M 0,0 -0.301,0.05 C -0.352,0.058 -0.377,0.047 -0.382,0 l -0.07,-0.439 c -0.014,-0.09 -0.073,-0.123 -0.176,-0.107 L -5.791,0.278 C -5.9,0.298 -5.944,0.347 -5.925,0.437 l 0.065,0.439 c 0.01,0.045 -0.015,0.069 -0.06,0.077 l -0.3,0.045 C -6.264,1.011 -6.294,0.989 -6.3,0.945 l -0.669,-4.28 c -0.01,-0.036 0.013,-0.064 0.057,-0.068 l 1.621,-0.286 c 0.046,-0.007 0.076,0.012 0.083,0.058 l 0.112,0.736 c 0.008,0.033 -0.015,0.057 -0.065,0.062 l -0.518,0.082 c -0.458,0.076 -0.61,0.265 -0.548,0.666 l 0.208,1.296 2.459,-0.399 -0.092,-0.624 c -0.035,-0.201 -0.128,-0.26 -0.366,-0.222 l -0.343,0.053 c -0.048,0.006 -0.074,-0.005 -0.08,-0.041 l -0.09,-0.584 c -0.008,-0.043 0.017,-0.063 0.06,-0.072 0.632,-0.073 1.25,-0.176 1.872,-0.296 0.046,-0.009 0.079,0.002 0.079,0.04 l 0.089,0.585 c 0.002,0.035 -0.017,0.061 -0.055,0.068 l -0.357,0.058 c -0.236,0.037 -0.306,0.123 -0.27,0.322 l 0.095,0.628 2.28,-0.363 -0.206,-1.298 c -0.067,-0.429 -0.268,-0.53 -0.728,-0.457 l -0.51,0.085 c -0.045,0.005 -0.079,-0.012 -0.083,-0.046 l -0.122,-0.732 c -0.002,-0.04 0.02,-0.073 0.065,-0.082 l 1.669,-0.231 c 0.045,-0.004 0.071,0.019 0.075,0.057 0.104,0.691 0.15,1.177 0.248,1.786 l 0.387,2.486 C 0.062,-0.027 0.042,-0.003 0,0"
         style="fill:#8c734b;fill-opacity:1;fill-rule:nonzero;stroke:none"
         transform="matrix(1.3333333,0,0,-1.3333333,422.8232,436.3792)"
         clip-path="url(#clipPath170)" />
      <path
         id="path171"
         d="m 0,0 c 0.548,0.156 0.925,0.64 0.925,1.341 0,1.008 -0.523,1.513 -1.534,1.513 -1.065,0 -1.736,-0.491 -1.607,-1.767 0.01,-0.032 0.034,-0.061 0.055,-0.061 h 0.847 c 0.03,0 0.052,0.029 0.052,0.061 -0.075,0.796 0.131,1.324 0.583,1.324 0.41,0 0.585,-0.366 0.585,-1.088 0,-0.822 -0.411,-1.095 -0.823,-1.095 h -0.216 c -0.033,0 -0.053,-0.024 -0.053,-0.064 v -0.396 c 0,-0.044 0.02,-0.068 0.053,-0.068 h 0.282 c 0.449,0 0.904,-0.139 0.904,-1.227 0,-0.814 -0.299,-1.226 -0.692,-1.226 -0.511,0 -0.698,0.489 -0.623,1.202 0,0.04 -0.022,0.061 -0.052,0.061 h -0.847 c -0.021,0 -0.045,-0.021 -0.055,-0.061 -0.129,-1.257 0.558,-1.647 1.558,-1.647 0.969,0 1.748,0.535 1.748,1.781 C 1.09,-0.492 0.571,-0.064 0,0"
         style="fill:#8c734b;fill-opacity:1;fill-rule:nonzero;stroke:none"
         transform="matrix(1.3333333,0,0,-1.3333333,393.33893,477.1248)"
         clip-path="url(#clipPath172)" />
      <path
         id="path173"
         d="m 0,0 -1.751,0.187 c -0.041,0.004 -0.07,-0.008 -0.07,-0.056 l -0.063,-0.729 c -0.008,-0.044 0.024,-0.07 0.063,-0.071 L -1.22,-0.72 c 0.457,-0.041 0.623,-0.212 0.588,-0.615 l -0.042,-0.498 -5.26,0.47 c -0.112,0.008 -0.161,0.06 -0.151,0.158 l 0.069,0.787 c 0,0.033 -0.024,0.058 -0.069,0.058 l -0.304,0.026 c -0.041,0 -0.072,-0.011 -0.077,-0.048 l -0.252,-2.924 c 0,-0.049 0.025,-0.069 0.071,-0.078 l 0.294,-0.019 c 0.047,-0.009 0.072,0.004 0.08,0.054 l 0.072,0.784 c 0.002,0.085 0.059,0.131 0.17,0.124 l 5.266,-0.473 -0.045,-0.485 c -0.031,-0.407 -0.224,-0.545 -0.689,-0.504 l -0.598,0.043 c -0.041,0.014 -0.071,-0.008 -0.077,-0.04 l -0.061,-0.733 c -0.006,-0.045 0.023,-0.074 0.061,-0.078 l 1.753,-0.118 c 0.045,-0.004 0.073,0.008 0.076,0.053 0.037,0.701 0.059,1.054 0.111,1.681 l 0.118,1.357 c 0.051,0.628 0.085,0.905 0.179,1.666 C 0.063,-0.027 0.043,-0.008 0,0"
         style="fill:#8c734b;fill-opacity:1;fill-rule:nonzero;stroke:none"
         transform="matrix(1.3333333,0,0,-1.3333333,423.56307,428.76747)"
         clip-path="url(#clipPath174)" />
      <path
         id="path175"
         d="m 0,0 h -1.767 c -0.453,0 -0.914,0.013 -1.496,0.028 -0.041,0 -0.055,-0.015 -0.055,-0.059 l -0.024,-1.744 c 0,-0.04 0.014,-0.064 0.047,-0.064 h 0.607 c 0.031,0 0.048,0.024 0.048,0.064 v 0.489 c 0,0.496 0.202,0.537 0.479,0.537 h 1.575 c -0.843,-1.795 -1.48,-3.313 -2.102,-5.07 -0.024,-0.055 0.027,-0.096 0.048,-0.096 h 0.961 c 0.024,0 0.039,0.016 0.046,0.056 0.351,1.653 0.888,3.335 1.689,5.465 v 0.321 C 0.056,-0.025 0.039,0 0,0"
         style="fill:#8c734b;fill-opacity:1;fill-rule:nonzero;stroke:none"
         transform="matrix(1.3333333,0,0,-1.3333333,388.94053,475.9472)"
         clip-path="url(#clipPath176)" />
      <path
         id="path177"
         d="m 0,0 h -1.776 c -0.45,0 -0.904,0.013 -1.491,0.028 -0.04,0 -0.054,-0.015 -0.054,-0.059 l -0.025,-1.744 c 0,-0.04 0.016,-0.064 0.047,-0.064 h 0.611 c 0.032,0 0.046,0.024 0.046,0.064 v 0.489 c 0,0.496 0.203,0.537 0.481,0.537 h 1.577 c -0.846,-1.795 -1.48,-3.313 -2.104,-5.07 -0.026,-0.055 0.023,-0.096 0.046,-0.096 h 0.957 c 0.034,0 0.044,0.016 0.052,0.056 0.353,1.653 0.888,3.335 1.689,5.465 v 0.321 C 0.056,-0.025 0.041,0 0,0"
         style="fill:#8c734b;fill-opacity:1;fill-rule:nonzero;stroke:none"
         transform="matrix(1.3333333,0,0,-1.3333333,382.9088,475.9472)"
         clip-path="url(#clipPath178)" />
      <path
         id="path179"
         d="m 0,0 c -0.045,0.016 -0.072,0.007 -0.089,-0.031 l -0.149,-0.415 c -0.035,-0.087 -0.096,-0.115 -0.199,-0.07 l -4.907,1.802 c -0.102,0.036 -0.137,0.099 -0.109,0.183 l 0.156,0.41 c 0.019,0.049 -0.006,0.076 -0.047,0.092 L -5.633,2.077 C -5.674,2.09 -5.704,2.079 -5.719,2.04 l -0.764,-2.117 c -0.013,-0.042 0,-0.079 0.046,-0.09 l 0.28,-0.107 c 0.047,-0.016 0.082,0 0.097,0.041 l 0.142,0.411 c 0.036,0.095 0.104,0.114 0.207,0.078 l 4.9,-1.805 c 0.099,-0.037 0.141,-0.096 0.111,-0.195 l -0.152,-0.404 c -0.013,-0.043 0,-0.08 0.041,-0.092 l 0.289,-0.107 c 0.039,-0.016 0.074,0 0.09,0.046 l 0.762,2.115 c 0.017,0.041 0,0.067 -0.046,0.084 z"
         style="fill:#8c734b;fill-opacity:1;fill-rule:nonzero;stroke:none"
         transform="matrix(1.3333333,0,0,-1.3333333,418.9036,451.34027)"
         clip-path="url(#clipPath180)" />
      <path
         id="path181"
         d="m 0,0 c -1.03,0.3 -1.566,0.013 -2.42,-1.057 -0.611,-0.737 -0.951,-0.852 -1.526,-0.689 -0.513,0.148 -0.991,0.488 -0.788,1.208 0.214,0.738 0.819,0.852 1.621,0.522 0.044,-0.03 0.07,-0.013 0.082,0.029 l 0.248,0.857 c 0.007,0.027 -0.017,0.055 -0.053,0.076 -1.278,0.521 -1.985,-0.032 -2.34,-1.301 -0.422,-1.483 0.109,-2.228 1.237,-2.559 0.955,-0.27 1.632,0.076 2.513,1.197 0.573,0.696 0.837,0.727 1.393,0.566 0.601,-0.171 0.82,-0.529 0.667,-1.072 -0.192,-0.671 -0.77,-0.697 -1.487,-0.41 -0.035,0.019 -0.062,0.011 -0.082,-0.03 L -1.172,-3.506 C -1.179,-3.533 -1.163,-3.57 -1.119,-3.582 0.15,-4.107 0.755,-3.57 1.102,-2.356 1.411,-1.245 1.102,-0.316 0,0"
         style="fill:#8c734b;fill-opacity:1;fill-rule:nonzero;stroke:none"
         transform="matrix(1.3333333,0,0,-1.3333333,419.2432,444.35987)"
         clip-path="url(#clipPath182)" />
      <path
         id="path183"
         d="m 0,0 c -9.914,0 -18.816,13.936 -18.816,32.52 0,18.577 8.902,32.512 18.816,32.512 9.918,0 18.819,-13.935 18.819,-32.512 C 18.819,13.936 9.918,0 0,0 m 0,66.241 c -11.048,0 -20.012,-15.095 -20.012,-33.721 0,-18.632 8.964,-33.725 20.012,-33.725 11.056,0 20.02,15.093 20.02,33.725 0,18.626 -8.964,33.721 -20.02,33.721"
         style="fill:#8c734b;fill-opacity:1;fill-rule:nonzero;stroke:none"
         transform="matrix(1.3333333,0,0,-1.3333333,384.17547,468.3384)"
         clip-path="url(#clipPath184)" />
      <path
         id="path185"
         d="m 0,0 h -0.897 c -0.089,0 -0.13,0.045 -0.13,0.147 v 3.49 c 0,0.652 0.02,1.135 0.09,1.803 0.008,0.041 -0.013,0.061 -0.053,0.061 H -1.586 C -1.627,5.501 -1.659,5.473 -1.682,5.44 -1.943,5.163 -2.472,4.877 -3.055,4.691 -3.094,4.679 -3.112,4.654 -3.112,4.626 V 4.325 c 0,-0.049 0.018,-0.069 0.057,-0.063 l 1.052,0.233 V 0.147 C -2.003,0.045 -2.044,0 -2.137,0 h -0.901 c -0.045,0 -0.056,-0.029 -0.056,-0.065 v -0.283 c 0,-0.039 0.011,-0.067 0.056,-0.067 H 0 c 0.04,0 0.057,0.028 0.057,0.067 v 0.283 C 0.057,-0.029 0.04,0 0,0"
         style="fill:#8c734b;fill-opacity:1;fill-rule:nonzero;stroke:none"
         transform="matrix(1.3333333,0,0,-1.3333333,377.70827,480.746)"
         clip-path="url(#clipPath186)" />
      <path
         id="path187"
         d="m 0,0 c -0.298,0.097 -0.59,-0.016 -0.683,-0.282 -0.099,-0.26 0.047,-0.526 0.345,-0.626 0.284,-0.099 0.573,0.012 0.671,0.272 C 0.429,-0.375 0.286,-0.098 0,0"
         style="fill:#8c734b;fill-opacity:1;fill-rule:nonzero;stroke:none"
         transform="matrix(1.3333333,0,0,-1.3333333,420.3116,453.09387)"
         clip-path="url(#clipPath188)" />
      <path
         id="path189"
         d="m 0,0 c -0.281,-0.11 -0.432,-0.378 -0.341,-0.645 0.091,-0.263 0.378,-0.375 0.658,-0.267 0.288,0.116 0.44,0.393 0.347,0.664 C 0.568,0.012 0.292,0.113 0,0"
         style="fill:#8c734b;fill-opacity:1;fill-rule:nonzero;stroke:none"
         transform="matrix(1.3333333,0,0,-1.3333333,348.03707,452.7632)"
         clip-path="url(#clipPath190)" />
      <path
         id="path191"
         d="m 0,0 c -0.321,-0.009 -0.557,-0.222 -0.557,-0.505 -0.006,-0.282 0.226,-0.47 0.542,-0.462 0.296,0 0.534,0.204 0.534,0.485 C 0.519,-0.202 0.292,0.002 0,0"
         style="fill:#8c734b;fill-opacity:1;fill-rule:nonzero;stroke:none"
         transform="matrix(1.3333333,0,0,-1.3333333,425.0744,425.33853)"
         clip-path="url(#clipPath192)" />
      <path
         id="path193"
         d="m 0,0 0.011,0.444 c 0,0.085 0.048,0.135 0.158,0.13 L 5.394,0.485 c 0.101,0 0.159,-0.055 0.153,-0.139 L 5.543,-0.098 c 0,-0.044 0.026,-0.065 0.068,-0.065 l 0.304,-0.004 c 0.048,-0.004 0.076,0.016 0.076,0.06 l 0.035,1.792 c 0,0.046 -0.028,0.061 -0.076,0.061 L 5.651,1.752 C 5.603,1.752 5.578,1.738 5.578,1.689 L 5.567,1.258 C 5.567,1.16 5.512,1.112 5.405,1.115 l -4.376,0.08 2.989,1.457 c 0.669,0.325 1.333,0.625 1.985,0.913 0.033,0.018 0.049,0.048 0.049,0.07 l 0.022,1.073 c 0,0.04 -0.03,0.059 -0.071,0.059 L 0.243,4.869 C 0.141,4.878 0.084,4.913 0.084,5.011 l 0.01,0.438 c 0,0.048 -0.024,0.067 -0.07,0.067 L -0.278,5.525 C -0.326,5.525 -0.352,5.5 -0.352,5.46 L -0.387,3.669 c 0,-0.037 0.034,-0.054 0.071,-0.056 H -0.01 C 0.028,3.608 0.059,3.624 0.059,3.66 L 0.07,4.105 c 0,0.097 0.053,0.142 0.163,0.142 L 4.593,4.168 1.572,2.696 C 0.918,2.378 0.243,2.064 -0.347,1.81 -0.392,1.793 -0.415,1.771 -0.415,1.731 L -0.449,0.007 c 0,-0.043 0.028,-0.065 0.072,-0.065 l 0.305,-0.007 C -0.027,-0.065 0,-0.045 0,0"
         style="fill:#8c734b;fill-opacity:1;fill-rule:nonzero;stroke:none"
         transform="matrix(1.3333333,0,0,-1.3333333,345.2756,426.78413)"
         clip-path="url(#clipPath194)" />
      <path
         id="path195"
         d="m 0,0 -0.284,-0.11 c -0.049,-0.012 -0.063,-0.049 -0.049,-0.091 l 0.15,-0.407 c 0.032,-0.097 0,-0.155 -0.101,-0.197 l -4.908,-1.803 c -0.104,-0.039 -0.167,-0.011 -0.2,0.085 l -0.147,0.404 c -0.019,0.042 -0.049,0.057 -0.088,0.042 l -0.294,-0.102 c -0.04,-0.017 -0.054,-0.054 -0.04,-0.095 l 0.757,-2.113 c 0.023,-0.045 0.048,-0.054 0.097,-0.037 l 0.281,0.107 c 0.039,0.012 0.063,0.041 0.047,0.084 l -0.146,0.412 c -0.037,0.091 10e-4,0.147 0.099,0.184 l 4.912,1.808 c 0.098,0.037 0.167,0.015 0.195,-0.07 l 0.149,-0.42 c 0.017,-0.046 0.05,-0.048 0.089,-0.032 l 0.285,0.107 c 0.045,0.011 0.061,0.039 0.049,0.077 L 0.089,-0.046 C 0.069,-0.007 0.041,0.012 0,0"
         style="fill:#8c734b;fill-opacity:1;fill-rule:nonzero;stroke:none"
         transform="matrix(1.3333333,0,0,-1.3333333,356.96027,448.57053)"
         clip-path="url(#clipPath196)" />
      <path
         id="path197"
         d="M 0,0 C 0.072,0.61 0.351,0.911 1.195,0.806 2.193,0.681 2.428,0.158 2.353,-0.443 L 2.314,-0.856 0.087,-0.578 c -0.106,0.012 -0.15,0.061 -0.139,0.148 z M 2.861,-0.46 C 2.967,0.357 3.312,0.761 4.334,0.635 5.116,0.538 5.488,0.138 5.4,-0.618 L 5.342,-1.089 C 5.331,-1.186 5.274,-1.223 5.168,-1.21 L 2.806,-0.916 Z M -0.7,-2.227 -0.402,-2.27 c 0.045,-0.004 0.074,0.01 0.079,0.054 l 0.053,0.44 c 0.011,0.093 0.073,0.131 0.172,0.114 L 5.088,-2.301 C 5.196,-2.317 5.24,-2.367 5.229,-2.457 L 5.175,-2.897 C 5.171,-2.941 5.196,-2.96 5.24,-2.967 l 0.302,-0.04 c 0.044,-0.007 0.074,0.011 0.079,0.054 l 0.29,2.362 C 6.047,0.529 5.873,1.6 4.483,1.776 3.415,1.906 2.903,1.405 2.682,0.627 2.636,1.369 2.152,1.843 1.341,1.941 0.028,2.108 -0.357,1.233 -0.497,0.114 l -0.275,-2.271 c -0.007,-0.046 0.024,-0.067 0.072,-0.07"
         style="fill:#8c734b;fill-opacity:1;fill-rule:nonzero;stroke:none"
         transform="matrix(1.3333333,0,0,-1.3333333,346.01707,414.87773)"
         clip-path="url(#clipPath198)" />
      <path
         id="path199"
         d="m 0,0 0.104,-1.433 -2.494,0.524 z m 2.298,-2.571 c 0.107,-0.033 0.159,-0.043 0.169,-0.145 l 0.016,-0.253 c 0.006,-0.04 0.037,-0.055 0.076,-0.055 l 0.307,0.022 c 0.042,0.005 0.065,0.021 0.065,0.065 l -0.116,1.604 c 0,0.046 -0.026,0.065 -0.069,0.063 L 2.437,-1.29 C 2.398,-1.295 2.368,-1.315 2.368,-1.36 L 2.405,-1.775 C 2.409,-1.866 2.358,-1.906 2.246,-1.885 L 0.658,-1.555 0.533,0.203 2.062,0.774 C 2.165,0.816 2.225,0.786 2.23,0.667 L 2.26,0.279 c 0,-0.043 0.026,-0.06 0.076,-0.056 L 2.638,0.244 C 2.682,0.248 2.71,0.27 2.705,0.313 L 2.562,2.386 C 2.559,2.432 2.531,2.447 2.483,2.442 L 2.184,2.418 C 2.136,2.418 2.112,2.401 2.112,2.354 L 2.133,2.109 C 2.136,2.013 2.086,1.984 1.982,1.936 L -2.515,0.227 C -2.857,0.098 -3.275,-0.037 -3.656,-0.14 -3.698,-0.153 -3.72,-0.176 -3.714,-0.203 l 0.069,-1.016 c 0,-0.023 0.026,-0.049 0.069,-0.051 0.758,-0.106 1.303,-0.213 1.962,-0.372 z"
         style="fill:#8c734b;fill-opacity:1;fill-rule:nonzero;stroke:none"
         transform="matrix(1.3333333,0,0,-1.3333333,349.8984,430.67147)"
         clip-path="url(#clipPath200)" />
      <path
         id="path201"
         d="M 0,0 C 1.039,0.288 1.342,0.824 1.504,2.189 1.636,3.136 1.862,3.416 2.443,3.582 2.956,3.734 3.529,3.704 3.731,2.985 3.942,2.242 3.492,1.824 2.634,1.677 2.585,1.673 2.569,1.649 2.582,1.603 L 2.825,0.744 C 2.83,0.715 2.868,0.711 2.909,0.711 4.264,0.953 4.573,1.805 4.217,3.064 3.794,4.553 2.954,4.902 1.824,4.574 0.871,4.295 0.476,3.637 0.315,2.219 0.193,1.315 -0.013,1.145 -0.563,0.982 c -0.603,-0.172 -0.98,0.011 -1.134,0.55 -0.194,0.674 0.293,1.004 1.042,1.147 0.048,0.008 0.072,0.033 0.059,0.068 L -0.834,3.596 C -0.845,3.621 -0.883,3.637 -0.927,3.637 -2.271,3.395 -2.505,2.614 -2.159,1.405 -1.842,0.288 -1.098,-0.327 0,0"
         style="fill:#8c734b;fill-opacity:1;fill-rule:nonzero;stroke:none"
         transform="matrix(1.3333333,0,0,-1.3333333,350.46173,449.13613)"
         clip-path="url(#clipPath202)" />
      <path
         id="path203"
         d="m 0,0 c -6.319,-8.997 -14.761,-13.966 -23.762,-13.966 -9.005,0 -17.437,4.969 -23.768,13.966 -6.277,8.931 -9.727,20.788 -9.727,33.393 0,12.595 3.45,24.454 9.727,33.392 6.331,8.992 14.763,13.961 23.768,13.961 9.001,0 17.443,-4.969 23.762,-13.961 C 6.281,57.847 9.735,45.988 9.735,33.393 9.735,20.788 6.281,8.931 0,0 m 0.974,67.485 c -6.494,9.234 -15.258,14.468 -24.736,14.468 -9.473,0 -18.242,-5.234 -24.729,-14.468 -6.455,-9.167 -9.963,-21.289 -9.963,-34.092 0,-12.817 3.508,-24.928 9.963,-34.092 6.487,-9.241 15.256,-14.477 24.729,-14.477 9.478,0 18.242,5.236 24.736,14.477 6.449,9.164 9.954,21.275 9.954,34.092 0,12.803 -3.505,24.925 -9.954,34.092"
         style="fill:#8c734b;fill-opacity:1;fill-rule:nonzero;stroke:none"
         transform="matrix(1.3333333,0,0,-1.3333333,415.85853,469.50253)"
         clip-path="url(#clipPath204)" />
      <path
         id="path205"
         d="m 0,0 -0.127,0.722 c -0.007,0.042 -0.037,0.055 -0.08,0.048 l -0.59,-0.106 c -0.46,-0.082 -0.66,0.037 -0.735,0.44 l -0.083,0.493 5.21,0.929 c 0.1,0.02 0.165,-0.018 0.18,-0.122 L 3.912,1.633 C 3.917,1.602 3.946,1.589 3.99,1.592 L 4.293,1.646 C 4.337,1.65 4.358,1.68 4.353,1.715 L 3.848,4.605 C 3.837,4.652 3.813,4.663 3.767,4.652 L 3.468,4.602 C 3.422,4.594 3.404,4.573 3.41,4.529 L 3.543,3.756 C 3.555,3.664 3.507,3.609 3.41,3.592 L -1.806,2.663 -1.881,3.149 c -0.074,0.394 0.075,0.589 0.535,0.667 l 0.591,0.106 c 0.043,0.012 0.065,0.032 0.06,0.07 l -0.123,0.72 C -0.825,4.758 -0.862,4.781 -0.906,4.764 L -2.62,4.427 C -2.67,4.419 -2.687,4.395 -2.685,4.353 -2.538,3.673 -2.463,3.316 -2.362,2.705 l 0.238,-1.349 c 0.109,-0.615 0.149,-0.887 0.249,-1.657 0.014,-0.041 0.042,-0.057 0.088,-0.041 l 1.725,0.27 C -0.014,-0.068 0.01,-0.045 0,0"
         style="fill:#8c734b;fill-opacity:1;fill-rule:nonzero;stroke:none"
         transform="matrix(1.3333333,0,0,-1.3333333,349.01253,442.48653)"
         clip-path="url(#clipPath206)" />
      <path
         id="path207"
         d="m 0,0 c -0.06,0.462 0.051,1.243 0.46,2.622 2.214,7.599 8.7,10.339 11.846,11.235 l 0.255,0.08 -0.28,-0.069 C 9.065,13.161 2.363,10.827 -0.275,3.441 -0.497,2.83 -0.644,2.336 -0.744,1.937 c 0.016,0.474 0.077,1.088 0.202,1.895 1.302,8.872 7.813,14.109 11.025,16.189 l 0.97,0.583 c 0.401,-0.041 0.979,-0.595 1.458,-2.257 0.449,-1.538 0.692,-3.725 0.517,-6.102 C 13.267,10.111 12.9,8.975 11.998,7.073 10.585,4.083 5.201,-0.418 0,0 m 1.408,-3.808 c -0.378,-0.139 -0.552,0.339 -0.613,0.669 0.06,0.24 0.02,0.427 -0.176,0.354 -0.159,-0.062 -0.489,-0.204 -0.824,0.122 -0.276,0.267 -0.412,0.628 -0.266,0.96 -0.683,-0.239 -2.096,-0.822 -3.415,-0.313 -0.368,0.133 -0.416,0.632 -0.279,0.961 -0.678,-0.244 -1.292,-0.371 -1.777,-0.362 -0.423,0.007 -1.433,0.093 -1.01,1.395 0.468,1.464 1.16,2.421 2.641,2.86 0.926,0.276 2.033,-0.016 2.51,-0.074 -0.308,-2.671 -0.211,-3.409 2.13,-3.786 2.085,-0.342 4.144,0.85 5.716,0.516 C 7.082,-0.924 3.863,-2.894 1.408,-3.808 M 6.68,-1.33 c 0.068,0.084 0.15,0.16 0.246,0.226 0.539,0.367 1.292,0.227 1.678,-0.306 0.258,-0.35 0.289,-0.798 0.13,-1.161 C 8.404,-3.256 7.571,-4.136 6.456,-4.896 5.351,-5.649 4.211,-6.117 3.43,-6.174 3.01,-6.202 2.595,-6.026 2.247,-5.518 c -0.164,0.384 -0.17,0.803 0.065,1.181 0.074,0.11 0.179,0.212 0.299,0.299 0.09,0.056 0.191,0.112 0.297,0.141 0.617,0.203 1.332,0.562 2.06,1.05 0.719,0.493 1.313,1.022 1.712,1.517 m 4.373,-3.965 c 0.209,-0.462 0.136,-0.988 -0.149,-1.363 -0.556,-0.738 -1.772,-1.555 -3.286,-2.179 -1.511,-0.611 -2.98,-0.88 -3.919,-0.757 -0.484,0.066 -0.933,0.375 -1.144,0.844 -0.319,0.703 0.01,1.513 0.726,1.806 0.12,0.057 0.255,0.092 0.389,0.101 0.783,0.091 1.739,0.337 2.724,0.735 0.982,0.399 1.824,0.887 2.431,1.37 0.105,0.076 0.224,0.145 0.345,0.198 0.726,0.292 1.559,-0.046 1.883,-0.755 m 0.794,-4.245 c 0.166,-0.478 0.046,-0.975 -0.258,-1.316 -0.602,-0.677 -1.828,-1.382 -3.325,-1.865 -1.493,-0.477 -2.909,-0.628 -3.798,-0.427 -0.457,0.097 -0.846,0.435 -1.013,0.91 -0.241,0.72 0.139,1.476 0.846,1.707 0.128,0.041 0.26,0.062 0.386,0.071 0.757,0.016 1.682,0.181 2.655,0.492 0.966,0.314 1.812,0.724 2.43,1.14 0.108,0.07 0.224,0.13 0.345,0.174 0.716,0.227 1.496,-0.167 1.732,-0.886 m -0.958,-5.122 c -0.465,-0.4 -1.371,-0.763 -2.43,-0.953 -1.058,-0.196 -2.04,-0.176 -2.642,0.035 -0.31,0.109 -0.573,0.37 -0.646,0.722 -0.109,0.517 0.233,1.008 0.75,1.103 0.098,0.016 0.188,0.019 0.279,0.016 0.511,-0.048 1.149,-0.02 1.834,0.102 0.677,0.12 1.291,0.318 1.736,0.538 0.082,0.043 0.17,0.068 0.263,0.088 0.528,0.099 1.043,-0.242 1.152,-0.765 0.077,-0.339 -0.052,-0.671 -0.296,-0.886 m -0.785,-2.924 c -0.32,-0.249 -0.918,-0.453 -1.602,-0.534 -0.687,-0.095 -1.327,-0.049 -1.712,0.11 -0.213,0.084 -0.381,0.276 -0.413,0.516 -0.058,0.356 0.193,0.689 0.748,0.729 0.318,-0.04 0.726,-0.049 1.156,0.014 0.437,0.053 0.823,0.158 1.114,0.279 l 0.182,0.054 c 0.369,0.039 0.709,-0.209 0.771,-0.564 0.031,-0.242 -0.067,-0.466 -0.244,-0.604 m -7.792,6.746 -0.034,0.555 0.24,-0.157 C 2.435,-10.563 2.363,-10.697 2.312,-10.84 M -10.283,0.879 c -1.209,0.651 -1.42,2.171 -0.46,3.636 0.964,1.461 2.735,2.122 3.943,1.467 C -5.587,5.321 -5.391,3.6 -6.359,2.133 -7.326,0.672 -9.07,0.215 -10.283,0.879 m -1.094,5.733 c 0.327,0.192 1.051,0.276 0.939,-0.196 -0.11,-0.464 -0.097,-0.626 -0.097,-0.626 l -0.648,0.107 c 0,0 -0.51,0.524 -0.194,0.715 m 7.704,-1.649 c 0.185,8.986 5.975,14.976 8.882,17.427 L 5.903,22.977 6.117,22.09 C 6.358,21.107 6.662,19.829 6.972,18.428 3.634,15.567 -0.361,10.82 -1.375,3.97 L -1.416,3.681 c -0.921,0.167 -1.677,0.204 -2.257,0.191 0,0.317 -0.008,0.681 0,1.091 m 16.507,1.755 c 0.63,1.502 1.25,3.257 1.411,5.453 0.36,4.878 -0.811,9.057 -2.768,9.239 -0.184,0.011 -0.376,-0.024 -0.562,-0.143 C 9.628,20.435 8.989,20.066 7.67,19.011 7.268,20.726 6.886,22.266 6.635,23.238 6.513,23.571 6.297,23.8 6.024,23.844 5.849,23.874 5.681,23.819 5.488,23.678 2.949,21.724 -4.295,15.262 -4.503,5 -4.515,4.556 -4.509,4.157 -4.505,3.791 -4.895,3.733 -5.086,3.666 -5.088,3.641 -4.918,4.927 -5.355,6.091 -6.365,6.637 -7.003,6.985 -7.774,7.03 -8.548,6.841 -9,6.739 -9.367,6.584 -9.481,6.547 -9.75,6.471 -10.014,6.754 -9.957,7.452 c 0.066,0.692 -0.315,0.692 -0.531,0.611 -0.227,-0.087 -0.865,-0.77 -1.15,-0.965 -0.276,-0.193 -0.642,-0.135 -0.675,0.229 -0.028,0.373 -0.6,0.139 -0.9,-0.173 -0.297,-0.313 -2.239,-1.861 -2.239,-1.861 l 0.201,-0.353 2.378,1.672 0.313,-0.414 -1.469,-1.172 0.246,-0.282 1.695,0.977 0.539,-0.616 -0.099,-0.345 c -0.185,-0.273 -0.315,-0.671 -0.379,-1.108 -0.713,-1.715 -0.368,-3.461 0.944,-4.174 0.964,-0.52 2.227,-0.366 3.354,0.297 l -0.05,-0.358 -0.056,-0.361 c 0,0 -1.753,-1.105 -2.233,-1.514 -0.474,-0.401 -0.553,-0.633 -0.553,-0.633 0,0 -0.426,-2.354 -0.627,-3.135 -0.201,-0.774 -0.695,-2.024 -0.527,-2.337 0.162,-0.302 0.717,-0.6 0.962,-0.431 0.224,0.157 0.055,0.431 0.166,0.94 0.125,0.501 0.766,3.424 0.94,4.047 0.174,0.616 1.083,1.397 1.546,1.727 0.326,0.22 0.557,0.451 0.747,0.518 0.09,-0.096 0.187,-0.18 0.306,-0.27 -0.039,-0.099 -0.159,-0.173 -0.159,-0.173 0,0 -0.772,-0.666 -1.091,-0.849 -0.325,-0.192 -0.572,-0.754 -0.572,-0.754 0,0 -0.372,-1.962 -0.487,-2.789 -0.125,-0.834 -0.719,-2.309 -0.713,-2.878 -0.006,-0.564 0.706,-0.834 0.897,-0.958 0.195,-0.109 0.221,0.937 0.468,1.466 0.239,0.534 0.945,3.599 1.057,4.35 0.111,0.753 0.353,0.748 0.661,1.103 0.305,0.359 1.182,0.9 1.182,0.9 0,0 0.47,-0.194 0.718,-0.194 0.252,-0.006 0.221,-0.482 0.221,-0.482 l -0.979,-0.692 c -0.326,-0.229 0.04,-0.891 0.174,-1.362 0.144,-0.466 0.376,-3.414 0.424,-4.515 0.044,-1.095 0.645,-0.989 0.934,-1.034 0.282,-0.048 0.129,0.301 0.122,1.148 0.007,0.853 -0.254,3.642 -0.365,4.305 -0.109,0.662 -0.094,1.066 0.144,1.267 0.241,0.202 1.134,0.907 1.311,0.96 0.179,0.048 0.385,-0.265 0.385,-0.265 0,0 -0.422,-0.541 -0.923,-0.863 -0.515,-0.318 -0.273,-0.964 -0.209,-1.416 0.054,-0.456 0.242,-4.001 0.212,-4.766 -0.02,-0.762 0.43,-0.756 0.79,-0.854 0.369,-0.102 0.289,0.239 0.323,0.758 0.037,0.517 -0.334,4.816 -0.283,5.134 0.049,0.317 0.66,1.108 1.161,1.632 0.496,0.521 0.822,0.643 1.133,0.481 0.313,-0.171 0.171,-0.537 0.171,-0.537 0,0 -0.726,-1.492 -0.895,-1.834 -0.174,-0.328 -0.473,-0.809 -0.384,-1.187 0.088,-0.375 0.635,-2.203 0.812,-3.808 0.183,-1.604 0.45,-6.135 0.42,-6.896 -0.025,-0.762 0.395,-1.603 0.727,-1.851 0.339,-0.259 1.206,-1.21 1.609,-1.034 0.399,0.179 -0.149,0.995 -0.33,1.184 -0.177,0.188 -0.711,0.847 -0.806,1.346 -0.099,0.495 -0.171,3.164 -0.193,4.702 -0.024,1.535 -0.508,4.545 -0.656,5.213 -0.152,0.671 -0.231,2.141 0.289,2.821 0.521,0.679 0.643,0.093 0.643,0.093 L 0.56,-7.012 c -0.08,-0.589 0.255,-2.265 0.451,-3.423 0.213,-1.17 0.493,-6.146 0.429,-6.859 -0.064,-0.716 0.118,-1.189 0.37,-1.469 0.248,-0.29 0.785,-1.747 1.109,-2.367 0.33,-0.622 0.944,-0.716 1.397,-0.467 0.451,0.252 -0.702,1.771 -1.121,2.321 -0.416,0.547 -0.562,1.742 -0.672,3.301 -0.068,1.048 -0.004,2.192 -0.04,2.904 0.33,-0.557 0.847,-0.98 1.454,-1.185 -0.052,-0.269 -0.048,-0.545 0.01,-0.829 0.159,-0.723 0.664,-1.296 1.306,-1.57 -0.126,-0.308 -0.168,-0.643 -0.115,-0.993 0.113,-0.692 0.585,-1.239 1.195,-1.487 0.686,-0.271 1.581,-0.293 2.362,-0.2 0.779,0.103 1.623,0.351 2.201,0.779 0.509,0.399 0.794,1.043 0.685,1.729 -0.051,0.326 -0.185,0.621 -0.384,0.873 0.199,0.105 0.373,0.235 0.526,0.367 0.573,0.483 0.853,1.256 0.683,2.032 -0.094,0.467 -0.336,0.867 -0.663,1.172 0.307,0.229 0.578,0.464 0.796,0.716 0.577,0.656 0.792,1.59 0.496,2.482 -0.233,0.678 -0.723,1.22 -1.331,1.526 l 0.216,0.263 c 0.535,0.708 0.678,1.687 0.274,2.567 -0.437,0.968 -1.382,1.558 -2.316,1.747 0.329,0.736 0.274,1.637 -0.262,2.36 -0.664,0.918 -2.25,1.545 -3.436,1.24 3.502,1.647 5.89,4.39 6.654,6.2"
         style="fill:#8c734b;fill-opacity:1;fill-rule:nonzero;stroke:none"
         transform="matrix(1.3333333,0,0,-1.3333333,383.11227,426.3988)"
         clip-path="url(#clipPath208)" />
      <path
         id="path209"
         d="M 0,0 C -0.305,0.036 -0.526,0.285 -0.506,0.555 -0.484,0.832 -0.212,1.02 0.098,0.986 0.401,0.952 0.635,0.706 0.613,0.433 0.588,0.158 0.309,-0.033 0,0 M 0.33,1.626 C -0.484,1.723 -1.199,1.211 -1.267,0.488 -1.333,-0.226 -0.728,-0.892 0.089,-0.986 0.905,-1.071 1.622,-0.557 1.692,0.158 1.749,0.881 1.144,1.539 0.33,1.626"
         style="fill:#8c734b;fill-opacity:1;fill-rule:nonzero;stroke:none"
         transform="matrix(1.3333333,0,0,-1.3333333,371.61307,421.65467)"
         clip-path="url(#clipPath210)" />
      <path
         id="path211"
         d="m 0,0 c -0.183,0 -0.33,0.148 -0.33,0.33 v 93.523 c 0,0.182 0.147,0.33 0.33,0.33 0.183,0 0.33,-0.148 0.33,-0.33 V 0.33 C 0.33,0.148 0.183,0 0,0"
         style="fill:#8c734b;fill-opacity:1;fill-rule:nonzero;stroke:none"
         transform="matrix(1.3333333,0,0,-1.3333333,464.53613,486.99627)"
         clip-path="url(#clipPath212)" />
      <path
         id="path213"
         d="m 0,0 -3.601,5.12 h 2.41 L 1.045,1.914 3.321,5.12 H 5.663 L 2.062,0.04 V -4.251 H 0 Z"
         style="fill:#8c734b;fill-opacity:1;fill-rule:nonzero;stroke:none"
         transform="matrix(1.3333333,0,0,-1.3333333,646.74653,420.13187)"
         clip-path="url(#clipPath214)" />
      <path
         id="path215"
         d="M 0,0 H 7.068 V -1.834 H 2.048 V -3.735 H 6.315 V -5.569 H 2.048 V -7.537 H 7.135 V -9.371 H 0 Z"
         style="fill:#8c734b;fill-opacity:1;fill-rule:nonzero;stroke:none"
         transform="matrix(1.3333333,0,0,-1.3333333,659.57987,413.3048)"
         clip-path="url(#clipPath216)" />
      <path
         id="path217"
         d="M 0,0 -1.245,3.039 -2.49,0 Z m -2.169,5.515 h 1.901 L 3.749,-3.923 H 1.593 l -0.856,2.102 h -3.963 l -0.857,-2.102 h -2.102 z"
         style="fill:#8c734b;fill-opacity:1;fill-rule:nonzero;stroke:none"
         transform="matrix(1.3333333,0,0,-1.3333333,682.28347,420.56933)"
         clip-path="url(#clipPath218)" />
      <path
         id="path219"
         d="m 0,0 c 1.004,0 1.58,0.536 1.58,1.326 v 0.026 c 0,0.884 -0.617,1.339 -1.62,1.339 H -2.088 V 0 Z m -4.15,4.552 h 4.284 c 1.191,0 2.115,-0.335 2.73,-0.951 C 3.387,3.079 3.668,2.343 3.668,1.459 V 1.433 c 0,-1.513 -0.817,-2.464 -2.009,-2.906 l 2.29,-3.346 h -2.41 l -2.007,2.998 h -1.62 V -4.819 H -4.15 Z"
         style="fill:#8c734b;fill-opacity:1;fill-rule:nonzero;stroke:none"
         transform="matrix(1.3333333,0,0,-1.3333333,698.31027,419.3736)"
         clip-path="url(#clipPath220)" />
      <path
         id="path221"
         d="M 0,0 -0.791,-0.181 -1.04,0.825 0.336,1.215 H 1.283 V -3.518 H 0 Z"
         style="fill:#7d6847;fill-opacity:1;fill-rule:nonzero;stroke:none"
         transform="matrix(1.3333333,0,0,-1.3333333,524.43347,470.80947)"
         clip-path="url(#clipPath222)" />
      <path
         id="path223"
         d="M 0,0 H -2.176 V 1.094 H 1.443 V 0.114 L -0.632,-3.605 H -2.069 Z"
         style="fill:#7d6847;fill-opacity:1;fill-rule:nonzero;stroke:none"
         transform="matrix(1.3333333,0,0,-1.3333333,534.534,470.6932)"
         clip-path="url(#clipPath224)" />
      <path
         id="path225"
         d="M 0,0 H -2.176 V 1.094 H 1.443 V 0.114 L -0.632,-3.605 H -2.069 Z"
         style="fill:#7d6847;fill-opacity:1;fill-rule:nonzero;stroke:none"
         transform="matrix(1.3333333,0,0,-1.3333333,544.49813,470.6932)"
         clip-path="url(#clipPath226)" />
      <path
         id="path227"
         d="M 0,0 0.819,0.819 C 1.154,0.477 1.51,0.282 1.94,0.282 c 0.369,0 0.605,0.188 0.605,0.476 v 0.014 c 0,0.302 -0.276,0.484 -0.766,0.484 H 1.228 L 1.041,1.934 2.121,2.907 H 0.322 V 3.961 H 3.719 V 3.028 L 2.598,2.068 C 3.269,1.92 3.813,1.544 3.813,0.745 V 0.732 C 3.813,-0.222 3.047,-0.833 2.001,-0.833 1.094,-0.833 0.456,-0.504 0,0"
         style="fill:#7d6847;fill-opacity:1;fill-rule:nonzero;stroke:none"
         transform="matrix(1.3333333,0,0,-1.3333333,551.22893,474.51573)"
         clip-path="url(#clipPath228)" />
      <path
         id="path229"
         d="m 421.016,297.988 h 5.142 v -1.094 h -5.142 z"
         style="fill:#7d6847;fill-opacity:1;fill-rule:nonzero;stroke:none"
         transform="matrix(1.3333333,0,0,-1.3333333,0,869.29067)"
         clip-path="url(#clipPath230)" />
      <path
         id="path231"
         d="m 0,0 1.759,1.343 c 0.436,0.342 0.604,0.564 0.604,0.846 0,0.295 -0.208,0.476 -0.524,0.476 -0.315,0 -0.564,-0.181 -0.933,-0.604 L 0.027,2.793 C 0.53,3.444 1.027,3.8 1.94,3.8 2.967,3.8 3.672,3.189 3.672,2.303 V 2.289 C 3.672,1.537 3.283,1.148 2.585,0.645 L 1.779,0.081 h 1.94 V -0.98 H 0 Z"
         style="fill:#7d6847;fill-opacity:1;fill-rule:nonzero;stroke:none"
         transform="matrix(1.3333333,0,0,-1.3333333,573.796,474.19373)"
         clip-path="url(#clipPath232)" />
      <path
         id="path233"
         d="m 0,0 v 0.013 c 0,0.745 -0.356,1.289 -0.872,1.289 -0.518,0 -0.86,-0.523 -0.86,-1.275 V 0.013 c 0,-0.752 0.349,-1.289 0.873,-1.289 C -0.335,-1.276 0,-0.746 0,0 m -3.041,0 v 0.013 c 0,1.329 0.846,2.444 2.182,2.444 1.336,0 2.169,-1.101 2.169,-2.43 V 0.013 c 0,-1.329 -0.84,-2.444 -2.182,-2.444 -1.343,0 -2.169,1.102 -2.169,2.431"
         style="fill:#7d6847;fill-opacity:1;fill-rule:nonzero;stroke:none"
         transform="matrix(1.3333333,0,0,-1.3333333,587.9756,472.38507)"
         clip-path="url(#clipPath234)" />
      <path
         id="path235"
         d="m 0,0 1.759,1.343 c 0.437,0.342 0.604,0.564 0.604,0.846 0,0.295 -0.208,0.476 -0.524,0.476 -0.315,0 -0.564,-0.181 -0.932,-0.604 L 0.027,2.793 C 0.53,3.444 1.027,3.8 1.94,3.8 2.967,3.8 3.672,3.189 3.672,2.303 V 2.289 C 3.672,1.537 3.283,1.148 2.585,0.645 L 1.779,0.081 h 1.94 V -0.98 H 0 Z"
         style="fill:#7d6847;fill-opacity:1;fill-rule:nonzero;stroke:none"
         transform="matrix(1.3333333,0,0,-1.3333333,594.76133,474.19373)"
         clip-path="url(#clipPath236)" />
      <path
         id="path237"
         d="M 0,0 0.819,0.819 C 1.154,0.477 1.51,0.282 1.94,0.282 c 0.369,0 0.605,0.188 0.605,0.476 v 0.014 c 0,0.302 -0.276,0.484 -0.766,0.484 H 1.228 L 1.041,1.934 2.121,2.907 H 0.322 V 3.961 H 3.719 V 3.028 L 2.598,2.068 C 3.269,1.92 3.813,1.544 3.813,0.745 V 0.732 C 3.813,-0.222 3.047,-0.833 2.001,-0.833 1.094,-0.833 0.456,-0.504 0,0"
         style="fill:#7d6847;fill-opacity:1;fill-rule:nonzero;stroke:none"
         transform="matrix(1.3333333,0,0,-1.3333333,604.6808,474.51573)"
         clip-path="url(#clipPath238)" />
      <path
         id="path239"
         d="m 0,0 c -0.04,0.07 -0.063,0.144 -0.095,0.215 h -21.5 v 0 0 c 6.914,7.021 13.827,14.043 20.741,21.064 v 22.715 c -1.152,1.4 -2.481,2.622 -3.951,3.632 -1.003,0.69 -2.07,1.283 -3.186,1.771 -1.116,0.488 -2.28,0.871 -3.479,1.141 -0.599,0.135 -1.207,0.242 -1.822,0.319 -0.547,0.069 -1.095,0.105 -1.642,0.127 -0.129,0.005 -0.258,0.009 -0.387,0.012 -0.418,0.008 -0.834,-0.005 -1.25,-0.024 -0.171,-0.008 -0.343,-0.008 -0.514,-0.02 -0.565,-0.042 -1.127,-0.103 -1.684,-0.194 -0.062,-0.01 -0.123,-0.027 -0.185,-0.037 -0.495,-0.086 -0.986,-0.189 -1.472,-0.313 -0.182,-0.046 -0.361,-0.104 -0.542,-0.155 -0.364,-0.105 -0.727,-0.216 -1.085,-0.342 -0.2,-0.07 -0.397,-0.145 -0.594,-0.222 -0.339,-0.132 -0.674,-0.273 -1.006,-0.425 -0.192,-0.087 -0.383,-0.174 -0.573,-0.268 -0.347,-0.172 -0.687,-0.359 -1.024,-0.553 -0.158,-0.091 -0.32,-0.176 -0.476,-0.272 -0.487,-0.298 -0.964,-0.613 -1.425,-0.956 -2.486,-1.847 -4.466,-4.25 -5.803,-6.985 -0.802,-1.641 -1.373,-3.402 -1.683,-5.234 2.583,-0.437 5.165,-0.873 7.748,-1.31 0.183,1.083 0.52,2.124 0.995,3.094 0.632,1.293 1.507,2.461 2.584,3.435 0.27,0.244 0.552,0.475 0.846,0.694 0.272,0.202 0.554,0.389 0.842,0.565 0.092,0.056 0.187,0.106 0.281,0.16 0.2,0.115 0.401,0.226 0.606,0.327 0.112,0.056 0.224,0.107 0.337,0.158 0.197,0.09 0.396,0.174 0.597,0.252 0.116,0.045 0.232,0.09 0.349,0.131 0.212,0.075 0.427,0.141 0.644,0.202 0.106,0.031 0.211,0.064 0.318,0.092 0.289,0.073 0.581,0.135 0.874,0.185 0.036,0.006 0.07,0.016 0.106,0.022 0.329,0.053 0.661,0.09 0.995,0.114 0.101,0.007 0.203,0.007 0.305,0.012 0.173,0.008 0.346,0.021 0.519,0.021 0.045,0 0.09,-0.008 0.134,-0.008 0.428,-0.005 0.856,-0.027 1.284,-0.081 0.727,-0.091 1.438,-0.252 2.124,-0.477 1.029,-0.338 2.003,-0.821 2.893,-1.433 0.593,-0.407 1.149,-0.872 1.658,-1.39 0.255,-0.259 0.498,-0.531 0.729,-0.815 0.461,-0.569 0.863,-1.176 1.203,-1.814 1.018,-1.912 1.476,-4.09 1.294,-6.28 -0.114,-1.374 -0.706,-2.664 -1.674,-3.647 -9.53,-9.678 -19.06,-19.357 -28.591,-29.036 V -7.65 c 0.532,0.002 1.063,0.005 1.594,0.008 H 7.314 C 4.335,-5.758 1.798,-3.162 0,0"
         style="fill:#6f5b3b;fill-opacity:1;fill-rule:nonzero;stroke:none"
         transform="matrix(1.3333333,0,0,-1.3333333,535.99907,450.03027)"
         clip-path="url(#clipPath240)" />
      <path
         id="path241"
         d="M 0,0 C 0.068,0.078 0.136,0.154 0.206,0.23 0.485,0.534 0.773,0.826 1.08,1.095 1.082,1.096 1.085,1.098 1.087,1.1 1.392,1.367 1.715,1.609 2.044,1.84 2.128,1.898 2.211,1.955 2.296,2.011 2.632,2.233 2.974,2.443 3.33,2.627 3.336,2.631 3.343,2.633 3.349,2.636 3.701,2.817 4.063,2.973 4.43,3.116 4.525,3.153 4.619,3.189 4.714,3.223 5.09,3.358 5.471,3.481 5.859,3.576 c 0.009,0.002 0.018,0.003 0.026,0.005 0.382,0.092 0.77,0.158 1.161,0.211 0.1,0.013 0.199,0.026 0.299,0.036 0.4,0.044 0.803,0.073 1.208,0.073 10e-4,0 0.003,0 0.005,0 0.147,0 0.295,-0.012 0.443,-0.017 C 9.155,3.878 9.309,3.877 9.463,3.865 9.602,3.854 9.74,3.831 9.878,3.815 10.044,3.795 10.21,3.781 10.376,3.754 10.505,3.733 10.633,3.701 10.761,3.676 10.936,3.641 11.112,3.611 11.286,3.568 11.436,3.53 11.585,3.48 11.735,3.436 11.886,3.392 12.037,3.355 12.187,3.304 12.786,3.102 13.36,2.853 13.904,2.563 14.443,2.276 14.952,1.948 15.43,1.584 c -0.133,2.879 0.113,5.769 0.744,8.586 -0.078,0.034 -0.154,0.068 -0.232,0.1 -0.279,0.116 -0.56,0.226 -0.844,0.329 -0.194,0.07 -0.388,0.139 -0.584,0.203 -0.29,0.094 -0.582,0.179 -0.875,0.259 -0.192,0.053 -0.383,0.107 -0.576,0.154 -0.314,0.076 -0.631,0.138 -0.948,0.198 -0.174,0.033 -0.347,0.071 -0.522,0.099 -0.4,0.064 -0.802,0.111 -1.205,0.15 -0.094,0.009 -0.186,0.024 -0.28,0.032 -0.496,0.04 -0.995,0.06 -1.493,0.061 C 8.183,11.757 7.75,11.745 7.318,11.717 7.236,11.712 7.153,11.7 7.071,11.694 6.718,11.667 6.365,11.633 6.014,11.586 5.861,11.565 5.71,11.538 5.557,11.514 5.276,11.469 4.994,11.422 4.714,11.364 4.545,11.33 4.378,11.291 4.211,11.252 3.945,11.19 3.681,11.124 3.417,11.051 3.249,11.004 3.08,10.955 2.912,10.903 2.648,10.822 2.385,10.733 2.124,10.64 1.964,10.583 1.803,10.528 1.644,10.466 1.362,10.358 1.084,10.238 0.806,10.115 0.672,10.056 0.537,10.002 0.404,9.94 -0.003,9.749 -0.407,9.546 -0.804,9.324 v 13.781 h 22.648 v 7.857 H -8.661 V 26.654 21.559 21.558 6.387 1.999 1.176 C -6.033,0.455 -3.405,-0.265 -0.778,-0.986 -0.537,-0.638 -0.273,-0.313 0,0"
         style="fill:#7d6847;fill-opacity:1;fill-rule:nonzero;stroke:none"
         transform="matrix(1.3333333,0,0,-1.3333333,549.8844,425.70573)"
         clip-path="url(#clipPath242)" />
      <path
         id="path243"
         d="m 0,0 c -0.268,-0.457 -0.573,-0.89 -0.902,-1.305 -0.065,-0.081 -0.128,-0.164 -0.195,-0.243 -1.524,-1.817 -3.613,-3.161 -6.04,-3.745 -0.002,0 -0.003,0 -0.004,0 -0.393,-0.095 -0.788,-0.16 -1.183,-0.212 -0.107,-0.014 -0.213,-0.025 -0.32,-0.036 -0.337,-0.035 -0.674,-0.055 -1.009,-0.06 -0.048,0 -0.096,-0.008 -0.144,-0.008 -0.02,0 -0.041,0.002 -0.062,0.002 -0.076,0 -0.151,0.006 -0.227,0.008 -0.207,0.005 -0.413,0.014 -0.619,0.031 -0.098,0.008 -0.196,0.018 -0.293,0.029 -0.186,0.02 -0.37,0.044 -0.553,0.072 -0.099,0.016 -0.197,0.032 -0.296,0.05 -0.192,0.035 -0.382,0.077 -0.572,0.122 -0.082,0.02 -0.165,0.036 -0.247,0.058 -0.205,0.053 -0.407,0.115 -0.608,0.179 -0.062,0.02 -0.126,0.037 -0.187,0.058 -0.024,0.008 -0.048,0.019 -0.071,0.027 -0.238,0.083 -0.473,0.174 -0.705,0.273 -0.083,0.035 -0.164,0.074 -0.246,0.111 -0.172,0.078 -0.342,0.159 -0.511,0.246 -0.089,0.046 -0.178,0.094 -0.267,0.142 -0.161,0.089 -0.32,0.182 -0.477,0.279 -0.083,0.05 -0.166,0.1 -0.247,0.153 -0.18,0.117 -0.356,0.24 -0.529,0.367 -0.052,0.038 -0.105,0.073 -0.156,0.111 -0.221,0.169 -0.436,0.346 -0.646,0.53 -0.053,0.047 -0.103,0.098 -0.155,0.146 -0.142,0.13 -0.283,0.262 -0.419,0.401 -0.012,0.012 -0.023,0.025 -0.035,0.037 -0.069,0.071 -0.136,0.144 -0.203,0.217 -0.128,0.138 -0.252,0.279 -0.373,0.423 -0.066,0.079 -0.131,0.158 -0.195,0.239 -0.122,0.154 -0.239,0.313 -0.354,0.474 -0.053,0.075 -0.107,0.147 -0.158,0.223 -0.161,0.239 -0.316,0.483 -0.46,0.737 -1.378,-0.784 -2.756,-1.567 -4.133,-2.35 -0.9,-0.512 -1.799,-1.023 -2.698,-1.534 0.21,-0.368 0.434,-0.723 0.665,-1.074 v 0 h -0.006 c 0.022,-0.033 0.045,-0.065 0.067,-0.097 0.082,-0.125 0.173,-0.242 0.258,-0.364 0.176,-0.251 0.354,-0.501 0.541,-0.743 0.108,-0.139 0.222,-0.272 0.333,-0.408 0.176,-0.214 0.353,-0.427 0.537,-0.632 0.123,-0.138 0.25,-0.271 0.377,-0.405 0.183,-0.192 0.368,-0.383 0.559,-0.567 0.134,-0.131 0.271,-0.258 0.408,-0.384 0.194,-0.178 0.392,-0.351 0.593,-0.519 0.142,-0.12 0.284,-0.239 0.43,-0.354 0.207,-0.165 0.419,-0.323 0.633,-0.479 0.146,-0.106 0.291,-0.213 0.439,-0.315 0.229,-0.157 0.463,-0.305 0.698,-0.452 0.141,-0.088 0.28,-0.179 0.423,-0.263 0.27,-0.159 0.546,-0.306 0.823,-0.452 0.115,-0.06 0.227,-0.126 0.343,-0.184 0.397,-0.198 0.799,-0.383 1.209,-0.554 0.053,-0.022 0.108,-0.039 0.161,-0.061 0.356,-0.144 0.717,-0.281 1.082,-0.404 0.015,-0.005 0.03,-0.008 0.045,-0.013 0.13,-0.044 0.263,-0.08 0.394,-0.121 0.278,-0.086 0.556,-0.171 0.838,-0.245 0.17,-0.044 0.342,-0.081 0.514,-0.121 0.262,-0.061 0.526,-0.12 0.792,-0.17 0.007,-0.002 0.015,-0.003 0.023,-0.004 0.175,-0.033 0.35,-0.06 0.526,-0.088 0.26,-0.041 0.52,-0.078 0.782,-0.109 0.188,-0.022 0.378,-0.04 0.567,-0.057 0.262,-0.022 0.525,-0.039 0.789,-0.05 0.19,-0.009 0.38,-0.017 0.571,-0.019 0.294,-0.005 0.59,-0.001 0.886,0.008 0.141,0.005 0.281,0.006 0.422,0.013 0.441,0.024 0.882,0.059 1.325,0.113 5.336,0.656 10.032,3.493 13.11,7.658 C 3.696,-3.546 2.022,-1.172 0.686,1.392 0.487,0.912 0.262,0.445 0,0"
         style="fill:#7d6847;fill-opacity:1;fill-rule:nonzero;stroke:none"
         transform="matrix(1.3333333,0,0,-1.3333333,574.3524,443.31453)"
         clip-path="url(#clipPath244)" />
      <path
         id="path245"
         d="m 0,0 c -0.376,-0.216 -0.759,-0.411 -1.146,-0.596 -0.12,-0.057 -0.242,-0.108 -0.363,-0.162 -0.273,-0.123 -0.548,-0.239 -0.826,-0.346 -0.136,-0.052 -0.273,-0.103 -0.411,-0.152 -0.283,-0.101 -0.568,-0.192 -0.855,-0.277 -0.12,-0.035 -0.238,-0.074 -0.359,-0.107 -0.402,-0.109 -0.806,-0.207 -1.213,-0.285 -0.048,-0.01 -0.097,-0.015 -0.145,-0.024 -0.361,-0.067 -0.724,-0.121 -1.087,-0.164 -0.133,-0.015 -0.266,-0.026 -0.398,-0.038 -0.286,-0.027 -0.573,-0.047 -0.86,-0.059 -0.141,-0.006 -0.282,-0.011 -0.423,-0.014 -0.208,-0.003 -0.415,0.004 -0.623,0.008 -0.328,0.007 -0.656,0.022 -0.983,0.048 -0.186,0.014 -0.371,0.03 -0.556,0.051 -0.337,0.038 -0.671,0.089 -1.004,0.147 -0.165,0.028 -0.331,0.052 -0.495,0.086 -0.436,0.089 -0.868,0.196 -1.296,0.319 -0.056,0.016 -0.113,0.027 -0.169,0.044 -0.482,0.144 -0.956,0.314 -1.425,0.502 -0.142,0.057 -0.281,0.124 -0.422,0.185 -0.325,0.141 -0.648,0.289 -0.966,0.451 -0.165,0.085 -0.328,0.175 -0.491,0.265 -0.291,0.161 -0.578,0.331 -0.86,0.51 -0.16,0.101 -0.319,0.203 -0.475,0.31 -0.292,0.199 -0.577,0.412 -0.857,0.631 -0.132,0.103 -0.266,0.2 -0.395,0.306 -0.401,0.333 -0.793,0.682 -1.168,1.057 -1.334,1.334 -2.824,2.478 -4.43,3.413 -1.07,0.623 -2.192,1.154 -3.353,1.586 -1.161,0.432 -2.361,0.765 -3.589,0.994 -0.613,0.115 -1.234,0.203 -1.859,0.265 -0.574,0.056 -1.148,0.084 -1.721,0.095 -0.08,0.001 -0.16,0.005 -0.24,0.006 -0.058,0 -0.116,0.004 -0.173,0.004 -0.537,0 -1.073,-0.02 -1.606,-0.06 -0.011,-0.001 -0.021,-0.003 -0.032,-0.003 -0.569,-0.043 -1.134,-0.112 -1.696,-0.2 -0.186,-0.029 -0.369,-0.069 -0.554,-0.103 -0.386,-0.07 -0.772,-0.146 -1.154,-0.237 -0.214,-0.051 -0.425,-0.11 -0.637,-0.167 -0.351,-0.096 -0.7,-0.198 -1.046,-0.311 -0.217,-0.07 -0.432,-0.144 -0.646,-0.221 -0.342,-0.124 -0.68,-0.258 -1.017,-0.399 -0.203,-0.086 -0.407,-0.169 -0.609,-0.261 -0.359,-0.164 -0.712,-0.343 -1.062,-0.526 -0.168,-0.088 -0.338,-0.169 -0.503,-0.261 -0.511,-0.284 -1.013,-0.586 -1.503,-0.913 -0.522,-0.349 -1.028,-0.719 -1.515,-1.11 -0.975,-0.78 -1.876,-1.64 -2.696,-2.568 -0.413,-0.467 -0.805,-0.952 -1.175,-1.452 -0.735,-0.992 -1.385,-2.045 -1.942,-3.151 -0.245,-0.485 -0.464,-0.984 -0.672,-1.488 -0.268,-0.649 -0.513,-1.309 -0.719,-1.987 -0.338,-1.114 -0.574,-2.248 -0.729,-3.388 -0.239,-1.765 -0.254,-3.545 -0.059,-5.308 0.224,-2.021 0.716,-4.016 1.506,-5.923 0.241,-0.581 0.506,-1.149 0.793,-1.703 0.576,-1.108 1.243,-2.16 1.994,-3.145 0.75,-0.986 1.583,-1.905 2.491,-2.749 1.361,-1.265 2.888,-2.359 4.552,-3.248 0.495,-0.265 1.001,-0.502 1.513,-0.727 0.143,-0.063 0.287,-0.122 0.432,-0.182 0.41,-0.169 0.824,-0.326 1.242,-0.469 0.12,-0.042 0.238,-0.087 0.358,-0.126 0.523,-0.169 1.05,-0.319 1.583,-0.448 0.121,-0.029 0.243,-0.052 0.364,-0.079 0.43,-0.096 0.863,-0.18 1.298,-0.25 0.155,-0.025 0.309,-0.05 0.464,-0.071 0.539,-0.075 1.08,-0.136 1.623,-0.17 0.009,-10e-4 0.017,-0.002 0.025,-0.003 0.444,-0.027 0.889,-0.041 1.334,-0.041 0.124,0 0.248,0.007 0.372,0.009 0.101,0.002 0.202,0.004 0.302,0.008 0.542,0.016 1.083,0.051 1.624,0.109 0.082,0.008 0.162,0.02 0.244,0.03 0.568,0.066 1.135,0.15 1.7,0.262 3.7,0.736 7.117,2.414 9.94,4.847 0.942,0.811 1.817,1.706 2.614,2.678 1.84,2.241 3.179,4.811 3.999,7.546 h 8.219 c -0.008,-0.035 -0.012,-0.071 -0.02,-0.106 -0.181,-0.827 -0.397,-1.646 -0.647,-2.454 -1.128,-3.633 -2.952,-7.042 -5.404,-10.03 -4.359,-5.311 -10.411,-8.939 -17.15,-10.279 -0.453,-0.09 -0.907,-0.168 -1.362,-0.236 -0.148,-0.023 -0.298,-0.039 -0.446,-0.059 -0.307,-0.042 -0.615,-0.082 -0.922,-0.114 -0.177,-0.018 -0.353,-0.032 -0.53,-0.047 -0.281,-0.024 -0.563,-0.046 -0.845,-0.062 -0.185,-0.011 -0.369,-0.018 -0.554,-0.026 -0.276,-0.01 -0.553,-0.017 -0.829,-0.02 -0.169,-0.002 -0.339,-0.002 -0.508,-0.001 -0.529,0.003 -1.057,0.017 -1.585,0.049 -0.011,0 -0.022,0 -0.034,10e-4 -0.536,0.033 -1.071,0.086 -1.605,0.148 -0.146,0.017 -0.292,0.036 -0.438,0.055 -0.443,0.058 -0.885,0.126 -1.325,0.205 -0.1,0.017 -0.2,0.032 -0.299,0.05 -0.523,0.099 -1.044,0.213 -1.561,0.34 -0.13,0.032 -0.259,0.067 -0.388,0.101 -0.417,0.108 -0.831,0.225 -1.243,0.351 -0.13,0.04 -0.26,0.078 -0.388,0.119 -0.509,0.164 -1.015,0.34 -1.516,0.531 -0.09,0.035 -0.18,0.073 -0.27,0.109 -0.423,0.166 -0.842,0.343 -1.259,0.53 -0.134,0.06 -0.269,0.12 -0.403,0.183 -0.494,0.23 -0.984,0.468 -1.467,0.726 -3.787,2.025 -7.058,4.826 -9.621,8.192 -1.538,2.02 -2.82,4.243 -3.806,6.623 -0.329,0.794 -0.622,1.598 -0.879,2.411 -0.052,0.162 -0.095,0.326 -0.143,0.489 -0.195,0.653 -0.373,1.311 -0.521,1.974 -0.05,0.221 -0.09,0.443 -0.134,0.665 -10e-4,10e-4 -10e-4,0.002 -10e-4,0.003 -0.288,1.44 -0.475,2.896 -0.547,4.358 -0.021,0.422 -0.032,0.845 -0.035,1.267 -0.003,0.423 0.004,0.846 0.019,1.269 0.048,1.297 0.182,2.593 0.4,3.88 0.209,1.229 0.494,2.449 0.859,3.654 0.182,0.597 0.387,1.183 0.604,1.765 0.38,1.019 0.809,2.016 1.295,2.981 0.382,0.758 0.796,1.498 1.24,2.218 0.222,0.36 0.452,0.715 0.689,1.065 0.474,0.7 0.978,1.38 1.51,2.037 0.27,0.333 0.548,0.66 0.832,0.982 0.598,0.675 1.229,1.322 1.888,1.942 1.191,1.121 2.477,2.15 3.853,3.069 0.556,0.372 1.127,0.718 1.704,1.05 0.093,0.053 0.185,0.109 0.278,0.161 0.555,0.311 1.119,0.602 1.69,0.875 0.109,0.053 0.219,0.104 0.329,0.155 0.582,0.27 1.17,0.524 1.767,0.756 0.067,0.026 0.135,0.049 0.203,0.075 0.586,0.222 1.178,0.425 1.776,0.61 0.065,0.02 0.13,0.042 0.195,0.062 0.613,0.184 1.233,0.345 1.857,0.489 0.117,0.027 0.233,0.054 0.35,0.08 0.616,0.134 1.235,0.25 1.858,0.345 0.106,0.017 0.213,0.03 0.319,0.045 0.652,0.092 1.307,0.169 1.965,0.218 0.005,0 0.01,0 0.015,0.001 0.656,0.048 1.314,0.068 1.974,0.072 0.12,0.001 0.24,0.005 0.36,0.004 0.309,-0.002 0.619,-0.011 0.928,-0.023 0.15,-0.005 0.3,-0.007 0.449,-0.015 0.459,-0.024 0.918,-0.056 1.377,-0.101 0.428,-0.042 0.853,-0.094 1.277,-0.154 1.694,-0.241 3.355,-0.627 4.967,-1.149 0.806,-0.261 1.599,-0.556 2.378,-0.885 1.169,-0.492 2.305,-1.06 3.402,-1.699 0.731,-0.425 1.445,-0.883 2.139,-1.371 1.388,-0.977 2.698,-2.076 3.912,-3.291 0.201,-0.2 0.41,-0.387 0.625,-0.565 0.069,-0.057 0.142,-0.109 0.213,-0.164 0.149,-0.115 0.299,-0.229 0.454,-0.334 0.086,-0.058 0.174,-0.113 0.262,-0.168 0.146,-0.092 0.293,-0.18 0.443,-0.262 0.093,-0.052 0.187,-0.102 0.282,-0.15 0.153,-0.076 0.307,-0.148 0.463,-0.215 0.094,-0.041 0.188,-0.083 0.283,-0.12 0.171,-0.067 0.344,-0.126 0.519,-0.183 0.082,-0.026 0.162,-0.056 0.245,-0.08 0.257,-0.075 0.517,-0.141 0.78,-0.192 0.008,-0.002 0.016,-0.003 0.024,-0.004 0.255,-0.049 0.512,-0.086 0.77,-0.112 0.087,-0.009 0.175,-0.012 0.263,-0.019 0.18,-0.013 0.36,-0.024 0.54,-0.026 0.038,0 0.075,-0.005 0.112,-0.005 0.041,0 0.081,0.008 0.122,0.008 0.368,0.005 0.735,0.026 1.101,0.077 0.002,0 0.005,10e-4 0.007,10e-4 0.364,0.051 0.725,0.132 1.083,0.229 0.066,0.018 0.133,0.034 0.199,0.053 0.345,0.102 0.685,0.226 1.02,0.372 0.064,0.028 0.127,0.059 0.191,0.089 0.346,0.16 0.687,0.336 1.016,0.544 3.507,2.217 5.009,6.569 3.618,10.478 -0.084,0.234 -0.177,0.462 -0.279,0.686 -0.033,0.073 -0.071,0.143 -0.106,0.216 -0.072,0.147 -0.144,0.293 -0.223,0.435 -0.046,0.085 -0.098,0.165 -0.147,0.247 -0.075,0.125 -0.15,0.25 -0.23,0.37 -0.056,0.084 -0.116,0.165 -0.175,0.247 -0.081,0.113 -0.163,0.224 -0.249,0.333 -0.064,0.08 -0.13,0.158 -0.196,0.236 -0.088,0.104 -0.178,0.206 -0.271,0.305 -0.07,0.075 -0.141,0.148 -0.214,0.221 -0.096,0.095 -0.193,0.188 -0.293,0.279 -0.075,0.069 -0.151,0.137 -0.229,0.203 -0.103,0.088 -0.209,0.172 -0.317,0.255 -0.079,0.061 -0.158,0.123 -0.239,0.182 -0.113,0.081 -0.228,0.157 -0.344,0.233 -0.081,0.053 -0.161,0.107 -0.244,0.158 -0.126,0.076 -0.256,0.147 -0.386,0.217 -0.077,0.042 -0.152,0.086 -0.23,0.125 -0.157,0.08 -0.318,0.151 -0.48,0.221 -0.055,0.023 -0.108,0.05 -0.163,0.073 -0.218,0.089 -0.439,0.169 -0.665,0.24 -0.057,0.019 -0.117,0.032 -0.175,0.049 -0.169,0.05 -0.338,0.098 -0.51,0.138 -0.087,0.02 -0.175,0.034 -0.263,0.051 -0.146,0.029 -0.292,0.058 -0.441,0.08 -0.097,0.015 -0.195,0.024 -0.293,0.035 -0.141,0.016 -0.282,0.031 -0.425,0.04 -0.102,0.007 -0.205,0.009 -0.308,0.012 -0.087,0.003 -0.173,0.01 -0.26,0.01 -0.038,0 -0.076,-0.006 -0.114,-0.007 -0.316,-0.004 -0.634,-0.019 -0.954,-0.057 -0.001,0 -0.002,0 -0.003,0 -1.03,-0.125 -2.004,-0.424 -2.892,-0.867 -0.444,-0.221 -0.866,-0.478 -1.264,-0.768 -0.397,-0.289 -0.77,-0.611 -1.113,-0.961 -0.343,-0.35 -0.658,-0.728 -0.939,-1.131 -0.282,-0.403 -0.531,-0.83 -0.744,-1.279 -0.426,-0.896 -0.706,-1.875 -0.811,-2.907 -1.726,1.129 -3.551,2.097 -5.451,2.892 -0.634,0.265 -1.276,0.51 -1.925,0.736 0.127,0.456 0.273,0.903 0.435,1.341 0.059,0.157 0.131,0.307 0.194,0.462 0.112,0.275 0.219,0.554 0.345,0.821 0.081,0.175 0.177,0.339 0.264,0.51 0.122,0.239 0.239,0.481 0.372,0.713 0.102,0.179 0.219,0.348 0.328,0.523 0.132,0.212 0.258,0.428 0.399,0.634 0.125,0.181 0.262,0.35 0.394,0.526 0.139,0.187 0.273,0.379 0.42,0.56 0.142,0.174 0.296,0.336 0.444,0.504 0.151,0.171 0.295,0.347 0.452,0.511 0.155,0.162 0.322,0.312 0.484,0.467 0.162,0.157 0.319,0.319 0.487,0.469 0.168,0.149 0.346,0.285 0.52,0.428 0.174,0.142 0.342,0.291 0.522,0.426 0.179,0.136 0.367,0.257 0.551,0.385 0.185,0.129 0.365,0.263 0.555,0.384 0.189,0.12 0.387,0.227 0.58,0.34 0.195,0.113 0.386,0.233 0.586,0.339 0.195,0.104 0.398,0.193 0.598,0.288 0.207,0.1 0.411,0.206 0.622,0.297 0.202,0.087 0.411,0.159 0.616,0.238 0.217,0.084 0.432,0.174 0.653,0.249 0.207,0.07 0.42,0.124 0.631,0.187 0.226,0.066 0.451,0.14 0.681,0.197 0.212,0.053 0.428,0.09 0.643,0.135 0.235,0.049 0.468,0.104 0.706,0.143 0.217,0.035 0.438,0.055 0.657,0.082 0.241,0.03 0.481,0.066 0.725,0.085 0.221,0.018 0.446,0.019 0.669,0.028 0.268,0.011 0.534,0.029 0.805,0.027 0.949,-0.007 1.884,-0.094 2.796,-0.255 C -3.166,30.76 -1.027,29.897 0.857,28.66 1.234,28.412 1.6,28.15 1.956,27.873 2.667,27.32 3.334,26.71 3.949,26.049 4.564,25.387 5.128,24.675 5.633,23.916 6.138,23.158 6.585,22.354 6.965,21.509 7.345,20.665 7.659,19.781 7.9,18.862 9.828,11.512 6.591,3.782 0,0"
         style="fill:#8c734b;fill-opacity:1;fill-rule:nonzero;stroke:none"
         transform="matrix(1.3333333,0,0,-1.3333333,660.9904,404.81267)"
         clip-path="url(#clipPath246)" />
      <path
         id="path247"
         d="M 0,0 H -1.409 V 1.142 H 2.713 V 0 H 1.303 V -3.558 H 0 Z"
         style="fill:#6f5b3b;fill-opacity:1;fill-rule:nonzero;stroke:none"
         transform="matrix(1.3333333,0,0,-1.3333333,644.61067,383.80467)"
         clip-path="url(#clipPath248)" />
      <path
         id="path249"
         d="M 0,0 H 1.303 V -1.759 H 2.974 V 0 H 4.277 V -4.7 H 2.974 v 1.786 H 1.303 V -4.7 H 0 Z"
         style="fill:#6f5b3b;fill-opacity:1;fill-rule:nonzero;stroke:none"
         transform="matrix(1.3333333,0,0,-1.3333333,650.77187,382.2824)"
         clip-path="url(#clipPath250)" />
    </g>
  </g>
</svg>
